<?xml version="1.0" encoding="UTF-8"?>
<svg version="1.1" xmlns="http://www.w3.org/2000/svg" width="500" height="500">
<path d="M0 0 C0.96419861 -0.0049649 1.92839722 -0.00992981 2.92181396 -0.01504517 C6.0828119 -0.0295378 9.24375958 -0.03644898 12.40478516 -0.04199219 C13.49597279 -0.04481956 14.58716042 -0.04764694 15.71141434 -0.05056 C21.49218228 -0.0655042 27.27292561 -0.07476237 33.05371094 -0.07910156 C38.96820778 -0.08456297 44.88247173 -0.10855555 50.79689598 -0.13707352 C55.39397803 -0.15587654 59.9910061 -0.16091491 64.58812332 -0.16243744 C66.76540009 -0.16542748 68.94267677 -0.17332918 71.11991501 -0.18662262 C104.9017974 -0.37807676 132.86412702 6.06010568 159.06884766 28.16113281 C159.64779785 28.64743164 160.22674805 29.13373047 160.82324219 29.63476562 C164.85485815 33.10897794 168.72808783 36.80431242 171.81884766 41.16113281 C171.81884766 41.82113281 171.81884766 42.48113281 171.81884766 43.16113281 C172.47884766 43.16113281 173.13884766 43.16113281 173.81884766 43.16113281 C188.48161395 61.86606711 196.13085058 86.15883835 196.109375 109.68676758 C196.11609222 110.76990738 196.12280945 111.85304718 196.12973022 112.9690094 C196.14856756 116.51356731 196.15262752 120.05793435 196.15478516 123.60253906 C196.16122411 126.09578017 196.16795326 128.58902055 196.17495728 131.08226013 C196.18689531 136.2977778 196.19064179 141.51322941 196.18945312 146.72875977 C196.18925041 153.36305719 196.21652039 159.99692403 196.25099754 166.63111973 C196.27340146 171.77975858 196.27728651 176.92829611 196.27623367 182.07697868 C196.27857061 184.5202374 196.28728445 186.96349973 196.30289841 189.40670967 C196.47830718 219.69383213 190.39178304 247.85652137 169.81884766 271.16113281 C169.15884766 271.16113281 168.49884766 271.16113281 167.81884766 271.16113281 C167.54427734 271.75796875 167.26970703 272.35480469 166.98681641 272.96972656 C158.77189145 288.38301386 135.49651967 298.96810501 119.73681641 304.35644531 C107.56944236 307.71183896 95.10719517 309.31253836 82.51000977 309.30639648 C81.00821167 309.3114344 81.00821167 309.3114344 79.47607422 309.3165741 C76.18276713 309.3260325 72.88951121 309.32802491 69.59619141 309.32910156 C67.28943359 309.33231864 64.98267598 309.33568305 62.67591858 309.33918762 C57.84342985 309.34516682 53.01095896 309.34702886 48.1784668 309.34643555 C42.02133705 309.34633421 35.86432336 309.35996199 29.70722103 309.37720776 C24.94134508 309.38839294 20.17549657 309.39035273 15.40960884 309.38982582 C13.14168461 309.39099707 10.87375947 309.39537016 8.60584831 309.40315819 C-21.24642382 309.49604346 -21.24642382 309.49604346 -35.55615234 304.78613281 C-36.22477295 304.56626709 -36.89339355 304.34640137 -37.58227539 304.11987305 C-42.61041758 302.43404922 -47.45480079 300.56333351 -52.18115234 298.16113281 C-53.03837891 297.731875 -53.89560547 297.30261719 -54.77880859 296.86035156 C-65.33409524 291.35260002 -81.4033196 282.62793141 -86.18115234 271.16113281 C-86.84115234 271.16113281 -87.50115234 271.16113281 -88.18115234 271.16113281 C-90.02580072 268.92766149 -91.74150417 266.69569444 -93.43115234 264.34863281 C-93.92623291 263.66518799 -94.42131348 262.98174316 -94.93139648 262.27758789 C-98.83783335 256.80344888 -102.28326508 251.24008851 -105.18115234 245.16113281 C-105.54595703 244.41347656 -105.91076172 243.66582031 -106.28662109 242.89550781 C-109.89701279 234.76175182 -111.51131707 225.86499039 -113.18115234 217.16113281 C-113.35143448 216.3468129 -113.52171661 215.53249298 -113.69715881 214.6934967 C-114.3484946 209.9398071 -114.33692212 205.26132409 -114.34228516 200.46850586 C-114.34725006 199.40253677 -114.35221497 198.33656769 -114.35733032 197.23829651 C-114.3719156 193.71647489 -114.37875037 190.19469841 -114.38427734 186.67285156 C-114.3900348 184.211085 -114.39579246 181.74931844 -114.40155029 179.28755188 C-114.41205206 174.1219563 -114.41789913 168.95637623 -114.42138672 163.79077148 C-114.42684868 157.21224054 -114.45083102 150.63391894 -114.47935867 144.0554533 C-114.4981076 138.96522959 -114.50319729 133.87505488 -114.5047226 128.78479958 C-114.50772556 126.36222002 -114.51567309 123.93964083 -114.52890778 121.51709557 C-114.66511706 94.65185948 -110.48350009 72.182035 -96.18115234 49.16113281 C-95.82053711 48.57122559 -95.45992187 47.98131836 -95.08837891 47.37353516 C-94.17655229 45.93156699 -93.18537444 44.54034924 -92.18115234 43.16113281 C-91.52115234 43.16113281 -90.86115234 43.16113281 -90.18115234 43.16113281 C-89.80410156 42.31421875 -89.80410156 42.31421875 -89.41943359 41.45019531 C-80.04056875 24.1126092 -56.22127486 10.77900218 -38.18115234 5.16113281 C-25.54402182 1.66174583 -13.10876792 0.01653173 0 0 Z M-13.9987793 16.04272461 C-14.70773692 16.1192542 -15.41669455 16.19578379 -16.14713573 16.27463245 C-33.44947493 18.38257609 -52.17410508 26.42172151 -65.18115234 38.16113281 C-65.18115234 38.82113281 -65.18115234 39.48113281 -65.18115234 40.16113281 C-65.76380859 40.41894531 -66.34646484 40.67675781 -66.94677734 40.94238281 C-69.36144265 42.25947298 -70.99855412 43.71201665 -72.93115234 45.66113281 C-73.54474609 46.26957031 -74.15833984 46.87800781 -74.79052734 47.50488281 C-76.39549322 49.05597558 -76.39549322 49.05597558 -76.18115234 51.16113281 C-76.84115234 51.16113281 -77.50115234 51.16113281 -78.18115234 51.16113281 C-79.87295612 53.50409847 -81.41873649 55.82992257 -82.93115234 58.28613281 C-83.3792627 59.01243896 -83.82737305 59.73874512 -84.2890625 60.48706055 C-97.5527425 82.45039353 -99.34024937 104.08253249 -99.34912109 129.14550781 C-99.35234072 131.29103619 -99.35570531 133.43656435 -99.35920715 135.58209229 C-99.36517294 140.06710315 -99.36704968 144.55209482 -99.36645508 149.03710938 C-99.3663536 154.74687631 -99.38000302 160.45651851 -99.39722729 166.16625595 C-99.40841742 170.59499665 -99.41037214 175.02370786 -99.40984535 179.45246124 C-99.41101503 181.55571167 -99.41537896 183.65896311 -99.42317772 185.7621994 C-99.61963936 207.53862337 -99.61963936 207.53862337 -94.61865234 228.59863281 C-94.36325684 229.29545166 -94.10786133 229.99227051 -93.84472656 230.71020508 C-89.41407415 242.27074765 -83.00334096 254.36010052 -74.18115234 263.16113281 C-73.52115234 263.16113281 -72.86115234 263.16113281 -72.18115234 263.16113281 C-71.95041016 263.73347656 -71.71966797 264.30582031 -71.48193359 264.89550781 C-63.64450788 278.54627932 -42.60692174 286.61682208 -28.18115234 291.16113281 C-18.91308704 293.6626185 -9.67769186 294.31126788 -0.11010742 294.30639648 C1.33579773 294.3114344 1.33579773 294.3114344 2.81091309 294.3165741 C5.97372758 294.32601369 9.13648873 294.32802379 12.29931641 294.32910156 C14.51735963 294.33231938 16.73540264 294.33568384 18.95344543 294.33918762 C23.59584037 294.34516171 28.23821673 294.34702933 32.88061523 294.34643555 C38.79680101 294.34633411 44.71286627 294.35997471 50.62902355 294.37720776 C55.20956456 294.38838828 59.79007701 294.39035289 64.37063026 294.38982582 C66.5500664 294.39099727 68.72950347 294.39537154 70.90892601 294.40315819 C103.48711284 294.50864555 129.65151811 287.00631697 154.12353516 264.97363281 C156.04654865 263.33132242 156.04654865 263.33132242 155.81884766 261.16113281 C156.47884766 261.16113281 157.13884766 261.16113281 157.81884766 261.16113281 C159.49101993 259.17714779 161.00808532 257.20959237 162.50634766 255.09863281 C162.95187988 254.47102051 163.39741211 253.8434082 163.85644531 253.19677734 C168.43072395 246.55839457 171.77149666 239.60479551 174.81884766 232.16113281 C175.23005859 231.16597656 175.64126953 230.17082031 176.06494141 229.14550781 C181.71502398 213.99583586 181.12185616 197.27997127 181.08447266 181.35253906 C181.08582478 179.29003351 181.08776984 177.22752828 181.090271 175.1650238 C181.09319719 170.86966885 181.08900659 166.57439783 181.07958984 162.27905273 C181.06820419 156.82532587 181.07476538 151.37179616 181.08673477 145.91807652 C181.09402779 141.66678941 181.09163152 137.41554757 181.08647919 133.16425896 C181.08516279 131.15559807 181.08671821 129.14693282 181.09143829 127.13827705 C181.10918619 117.46640556 180.97563396 107.88557556 179.93115234 98.26245117 C179.85423283 97.55153855 179.77731331 96.84062593 179.6980629 96.10817051 C177.72759322 79.98693217 169.77025594 63.89893541 159.81884766 51.16113281 C159.15884766 51.16113281 158.49884766 51.16113281 157.81884766 51.16113281 C157.58166016 50.59910156 157.34447266 50.03707031 157.10009766 49.45800781 C155.52937069 46.6421924 153.60413301 44.68157865 151.31884766 42.41113281 C150.52478516 41.61191406 149.73072266 40.81269531 148.91259766 39.98925781 C147.03101304 37.94189672 147.03101304 37.94189672 144.81884766 38.16113281 C144.81884766 37.50113281 144.81884766 36.84113281 144.81884766 36.16113281 C142.76471674 34.64180521 140.73014467 33.26330878 138.56884766 31.91113281 C137.92842529 31.50926758 137.28800293 31.10740234 136.62817383 30.69335938 C127.84820574 25.25580879 119.36909679 21.06851534 109.38134766 18.34863281 C108.63087158 18.14141602 107.88039551 17.93419922 107.10717773 17.72070312 C93.83494209 14.35619068 79.86810822 14.99841997 66.27587891 14.99316406 C64.29733762 14.98994145 62.31879656 14.98657666 60.34025574 14.983078 C56.2093348 14.9771223 52.07843468 14.9752344 47.94750977 14.97583008 C42.70442854 14.97593147 37.46148341 14.96228691 32.21843433 14.94505787 C28.13528351 14.93383367 24.05216452 14.93191404 19.96899986 14.9324398 C18.0384849 14.93127502 16.10796868 14.9269399 14.17746925 14.91910744 C4.73658022 14.88438754 -4.60540993 15.02392602 -13.9987793 16.04272461 Z " fill="#70A635" transform="translate(209.18115234375,92.8388671875)"/>
<path d="M0 0 C2.31 0.33 4.62 0.66 7 1 C7.33 23.77 7.66 46.54 8 70 C20.4156548 70.28923149 20.4156548 70.28923149 32.83154297 70.56811523 C34.38510042 70.60623208 35.93864929 70.64470069 37.4921875 70.68359375 C38.30244385 70.70006958 39.1127002 70.71654541 39.94750977 70.73352051 C45.7718564 70.8859282 45.7718564 70.8859282 48 72 C48.7824707 73.74438477 48.7824707 73.74438477 49 76 C48.02026367 78.42553711 48.02026367 78.42553711 46.48046875 81.08984375 C45.92149902 82.06163574 45.3625293 83.03342773 44.78662109 84.03466797 C42.0386281 88.59563038 39.20738869 93.09352573 36.3125 97.5625 C31.88478897 104.4569448 27.50369333 111.37171562 23.25 118.375 C22.35421947 119.84768837 21.45838705 121.32034518 20.5625 122.79296875 C20.13324219 123.49856934 19.70398438 124.20416992 19.26171875 124.93115234 C12.50378041 136.01218359 5.49046443 146.9165335 -1.64746094 157.7565918 C-5.17802124 163.13454921 -8.58385671 168.55985031 -11.84472656 174.10595703 C-13 176 -13 176 -14 177 C-16.9375 177.1875 -16.9375 177.1875 -20 177 C-22.85613421 174.14386579 -22.27701694 172.16537913 -22.31884766 168.16357422 C-22.32889328 167.46102509 -22.3389389 166.75847595 -22.34928894 166.03463745 C-22.38022731 163.70799594 -22.39718527 161.38147004 -22.4140625 159.0546875 C-22.43276562 157.44327797 -22.45233839 155.83187832 -22.4727478 154.2204895 C-22.52416562 149.9757875 -22.56373948 145.7310537 -22.60089111 141.48620605 C-22.64087047 137.156088 -22.6919904 132.82610327 -22.7421875 128.49609375 C-22.83906096 119.99748677 -22.92342895 111.49881403 -23 103 C-24.38505737 102.96241577 -24.38505737 102.96241577 -25.7980957 102.92407227 C-29.22546416 102.82890955 -32.65266461 102.72967786 -36.07983398 102.62768555 C-37.56286015 102.5843867 -39.04593454 102.54270801 -40.52905273 102.50268555 C-42.66144339 102.44486042 -44.79359242 102.38120168 -46.92578125 102.31640625 C-48.20880127 102.27974854 -49.49182129 102.24309082 -50.8137207 102.20532227 C-54 102 -54 102 -57 101 C-58.21671489 92.58524071 -54.01959406 87.25839143 -49.5625 80.4375 C-48.81833315 79.26968058 -48.07607313 78.10064396 -47.33569336 76.93041992 C-45.88342944 74.63798054 -44.42367712 72.35064544 -42.95703125 70.06738281 C-40.58888749 66.35563654 -38.30611591 62.60036201 -36.0625 58.8125 C-35.37774264 57.66528192 -34.69284991 56.51814462 -34.0078125 55.37109375 C-33.34523437 54.25863281 -32.68265625 53.14617187 -32 52 C-30.48111249 49.4571659 -28.95983307 46.9157726 -27.4375 44.375 C-27.0652832 43.75310791 -26.69306641 43.13121582 -26.30957031 42.49047852 C-23.84784752 38.38634865 -21.33946212 34.31427748 -18.8125 30.25 C-15.32546671 24.61064958 -12.10019931 18.85984643 -9 13 C-8.34 13 -7.68 13 -7 13 C-6.8865625 12.42636719 -6.773125 11.85273438 -6.65625 11.26171875 C-5.93511141 8.77636613 -4.90056919 6.98256797 -3.5 4.8125 C-2.83484375 3.77029297 -2.83484375 3.77029297 -2.15625 2.70703125 C-1 1 -1 1 0 0 Z " fill="#F38418" transform="translate(251,155)"/>
<path d="M0 0 C2 1.375 2 1.375 4 3 C4 3.66 4 4.32 4 5 C4.66 5 5.32 5 6 5 C7.16641008 6.42938253 8.3312107 7.86011251 9.48730469 9.29785156 C23.45868023 25.01903141 47.65385107 33.26240757 68 35 C71.35774787 35.13486837 74.71087043 35.14697453 78.07104492 35.14526367 C79.03498169 35.14862228 79.99891846 35.1519809 80.99206543 35.15544128 C84.15487993 35.16488088 87.31764107 35.16689098 90.48046875 35.16796875 C92.69851197 35.17118657 94.91655499 35.17455103 97.13459778 35.17805481 C101.77699271 35.1840289 106.41936908 35.18589652 111.06176758 35.18530273 C116.97795336 35.1852013 122.89401862 35.1988419 128.8101759 35.21607494 C133.39071691 35.22725547 137.97122936 35.22922008 142.55178261 35.22869301 C144.73121874 35.22986446 146.91065582 35.23423873 149.09007835 35.24202538 C181.04775583 35.34550354 207.32963705 28.32927379 231.42578125 6.59375 C233.09492369 5.06879679 233.09492369 5.06879679 234 3 C234.66 3 235.32 3 236 3 C236.33 2.01 236.66 1.02 237 0 C238 3 238 3 237.0625 5.1875 C236.711875 5.785625 236.36125 6.38375 236 7 C236.9590625 7.680625 236.9590625 7.680625 237.9375 8.375 C240 10 240 10 241 12 C241.33 11.34 241.66 10.68 242 10 C242.66 10 243.32 10 244 10 C244 10.66 244 11.32 244 12 C244.99 12 245.98 12 247 12 C247.12375 11.4225 247.2475 10.845 247.375 10.25 C248.00648824 7.97664233 248.88858191 6.0746471 250 4 C250.99 4.33 251.98 4.66 253 5 C251.38731308 7.71224618 249.75098126 10.37352812 248 13 C247.34 13 246.68 13 246 13 C245.72542969 13.59683594 245.45085937 14.19367188 245.16796875 14.80859375 C236.95304379 30.22188105 213.67767201 40.8069722 197.91796875 46.1953125 C185.75059471 49.55070614 173.28834751 51.15140554 160.69116211 51.14526367 C159.18936401 51.15030159 159.18936401 51.15030159 157.65722656 51.15544128 C154.36391948 51.16489969 151.07066355 51.1668921 147.77734375 51.16796875 C145.47058593 51.17118583 143.16382832 51.17455024 140.85707092 51.17805481 C136.02458219 51.18403401 131.19211131 51.18589605 126.35961914 51.18530273 C120.20248939 51.1852014 114.0454757 51.19882917 107.88837337 51.21607494 C103.12249743 51.22726013 98.35664891 51.22921992 93.59076118 51.22869301 C91.32283696 51.22986426 89.05491181 51.23423734 86.78700066 51.24202538 C56.93472853 51.33491065 56.93472853 51.33491065 42.625 46.625 C41.62206909 46.29520142 41.62206909 46.29520142 40.59887695 45.95874023 C35.57073477 44.27291641 30.72635155 42.4022007 26 40 C25.14277344 39.57074219 24.28554687 39.14148438 23.40234375 38.69921875 C12.8470571 33.19146721 -3.22216725 24.4667986 -8 13 C-8.66 13 -9.32 13 -10 13 C-10.66 11.68 -11.32 10.36 -12 9 C-9.5625 9.8125 -9.5625 9.8125 -7 11 C-6.67 11.99 -6.34 12.98 -6 14 C-5.34 14 -4.68 14 -4 14 C-3.525625 14.495 -3.05125 14.99 -2.5625 15.5 C-1.00030058 17.34626591 -1.00030058 17.34626591 2 17 C2 17.99 2 18.98 2 20 C2.66 19.01 3.32 18.02 4 17 C4.66 17 5.32 17 6 17 C5.67 14.36 5.34 11.72 5 9 C2.53199953 10.15173355 0.95216435 11.04783565 -1 13 C-0.979375 12.21625 -0.95875 11.4325 -0.9375 10.625 C-0.81315937 8.01885039 -0.81315937 8.01885039 -2 6 C-1.34 5.34 -0.68 4.68 0 4 C0 2.68 0 1.36 0 0 Z " fill="#699F34" transform="translate(131,351)"/>
<path d="M0 0 C0.91102913 3.87647787 1.12137137 7.46471752 1.11352539 11.44262695 C1.11344986 12.72357742 1.11337433 14.00452789 1.11329651 15.32429504 C1.10819065 16.71229085 1.10297467 18.10028625 1.09765625 19.48828125 C1.09578975 20.91603038 1.09436694 22.34378015 1.09336853 23.77153015 C1.08956165 27.51813545 1.07974707 31.2647016 1.06866455 35.0112915 C1.05841102 38.83890249 1.05386248 42.66651984 1.04882812 46.49414062 C1.03812307 53.99611154 1.02106873 61.49805027 1 69 C1.99 69.495 1.99 69.495 3 70 C3 69.34 3 68.68 3 68 C3.78375 67.71125 4.5675 67.4225 5.375 67.125 C8.09671632 66.15087746 8.09671632 66.15087746 10 64 C9.67673447 60.40320934 9.67673447 60.40320934 9 57 C10.96466413 55.93224776 12.96855359 54.93446535 15 54 C15.99 54.495 15.99 54.495 17 55 C17.185625 53.2984375 17.185625 53.2984375 17.375 51.5625 C17.58125 50.386875 17.7875 49.21125 18 48 C18.66 47.67 19.32 47.34 20 47 C21.0761054 43.42464981 21.0761054 43.42464981 20 40 C20.639375 39.71125 21.27875 39.4225 21.9375 39.125 C24.15206079 38.17176549 24.15206079 38.17176549 25 36 C25.66 36 26.32 36 27 36 C27 34.68 27 33.36 27 32 C29.475 31.505 29.475 31.505 32 31 C32.144375 29.96875 32.28875 28.9375 32.4375 27.875 C32.7159375 25.956875 32.7159375 25.956875 33 24 C33.103125 22.906875 33.20625 21.81375 33.3125 20.6875 C34 18 34 18 35.8125 16.625 C38 16 38 16 42 16 C42.185625 14.2984375 42.185625 14.2984375 42.375 12.5625 C42.58125 11.386875 42.7875 10.21125 43 9 C43.66 8.67 44.32 8.34 45 8 C45.99 8.495 45.99 8.495 47 9 C45.52936553 14.4007783 42.95538089 18.47495318 39.875 23.0625 C38.86734566 24.59039202 37.86084206 26.11904357 36.85546875 27.6484375 C36.36353027 28.39448242 35.8715918 29.14052734 35.36474609 29.90917969 C33.58465592 32.63631605 31.87969522 35.40510525 30.1875 38.1875 C26.48451782 44.25180415 22.6879959 50.25431379 18.875 56.25 C17.99557739 57.63481567 17.99557739 57.63481567 17.09838867 59.04760742 C15.95871846 60.83691055 14.81470121 62.62345352 13.66601562 64.40698242 C12.54824642 66.14669912 11.44287939 67.8944423 10.34960938 69.6496582 C9.82947266 70.46781006 9.30933594 71.28596191 8.7734375 72.12890625 C8.31630371 72.85924072 7.85916992 73.5895752 7.38818359 74.34204102 C6 76 6 76 2.75 76.6875 C0 76 0 76 -2 74 C-2.2784729 71.02609253 -2.2784729 71.02609253 -2.31884766 67.16357422 C-2.32889328 66.46102509 -2.3389389 65.75847595 -2.34928894 65.03463745 C-2.38022731 62.70799594 -2.39718527 60.38147004 -2.4140625 58.0546875 C-2.43276562 56.44327797 -2.45233839 54.83187832 -2.4727478 53.2204895 C-2.52416562 48.9757875 -2.56373948 44.7310537 -2.60089111 40.48620605 C-2.64087047 36.156088 -2.6919904 31.82610327 -2.7421875 27.49609375 C-2.83906103 18.99747998 -2.92239969 10.49881163 -3 2 C-13.23 1.67 -23.46 1.34 -34 1 C-34 0.67 -34 0.34 -34 0 C-29.64028686 -0.16775443 -25.28038583 -0.32829897 -20.92016602 -0.48217773 C-19.43702051 -0.53553529 -17.95394439 -0.59085973 -16.47094727 -0.64819336 C-14.33885663 -0.73027921 -12.20661621 -0.80528001 -10.07421875 -0.87890625 C-8.14968872 -0.94960327 -8.14968872 -0.94960327 -6.1862793 -1.02172852 C-3 -1 -3 -1 0 0 Z " fill="#B92D24" transform="translate(231,256)"/>
<path d="M0 0 C0.93672043 -0.00137466 1.87344086 -0.00274933 2.83854675 -0.00416565 C3.86928818 -0.00057037 4.9000296 0.0030249 5.96200562 0.00672913 C7.044944 0.0065831 8.12788239 0.00643707 9.24363708 0.00628662 C12.83646624 0.00698536 16.42924407 0.014776 20.02206421 0.02259827 C22.5078529 0.02446258 24.99364196 0.02588642 27.47943115 0.02688599 C33.36196568 0.03031887 39.24448114 0.03820679 45.12700784 0.04823548 C52.48004417 0.0604996 59.83308278 0.06587825 67.18612671 0.07142639 C80.3059278 0.08216184 93.42571358 0.09904566 106.54550171 0.12025452 C106.54550171 0.45025452 106.54550171 0.78025452 106.54550171 1.12025452 C100.63368207 3.16663778 95.33770229 3.39409842 89.1121521 3.3473053 C88.087005 3.34759735 87.06185791 3.3478894 86.00564575 3.34819031 C82.63472883 3.34680276 79.26403602 3.33126847 75.89315796 3.31556702 C73.54903789 3.31183485 71.20491626 3.30898884 68.86079407 3.30699158 C62.70409811 3.2993712 56.54749716 3.27973633 50.39083862 3.25758362 C44.10321335 3.23709086 37.81557266 3.22798252 31.52792358 3.21791077 C19.20040798 3.19648899 6.87296276 3.16237226 -5.45449829 3.12025452 C-5.78449829 2.46025452 -6.11449829 1.80025452 -6.45449829 1.12025452 C-4.07893535 -0.06752695 -2.6502567 -0.00299126 0 0 Z " fill="#547738" transform="translate(202.45449829101563,398.87974548339844)"/>
<path d="M0 0 C2.31 0.33 4.62 0.66 7 1 C7.33 23.77 7.66 46.54 8 70 C20.54 70.33 33.08 70.66 46 71 C46 71.33 46 71.66 46 72 C43.525 72.495 43.525 72.495 41 73 C41 73.33 41 73.66 41 74 C25.16 74.495 25.16 74.495 9 75 C8.67 75.66 8.34 76.32 8 77 C7.01 77 6.02 77 5 77 C5.33 52.58 5.66 28.16 6 3 C5.34 3 4.68 3 4 3 C4 3.66 4 4.32 4 5 C3.34 5 2.68 5 2 5 C2 4.34 2 3.68 2 3 C1.34 3 0.68 3 0 3 C-0.0825 3.721875 -0.165 4.44375 -0.25 5.1875 C-1.1507657 8.56537138 -2.7673956 10.34878227 -5 13 C-5.33 13.99 -5.66 14.98 -6 16 C-5.01 16 -4.02 16 -3 16 C-3.33 17.32 -3.66 18.64 -4 20 C-5.32 19.67 -6.64 19.34 -8 19 C-8.2475 19.61875 -8.495 20.2375 -8.75 20.875 C-10.20628639 23.35068687 -11.37812506 23.95125002 -14 25 C-14 26.65 -14 28.3 -14 30 C-14.99 30 -15.98 30 -17 30 C-17 30.66 -17 31.32 -17 32 C-17.66 31.67 -18.32 31.34 -19 31 C-18.44570312 30.03578125 -17.89140625 29.0715625 -17.3203125 28.078125 C-16.58848403 26.80211639 -15.8567164 25.52607288 -15.125 24.25 C-14.76019531 23.61578125 -14.39539063 22.9815625 -14.01953125 22.328125 C-12.2603169 19.25749632 -10.53126626 16.19148125 -9 13 C-8.34 13 -7.68 13 -7 13 C-6.8865625 12.42636719 -6.773125 11.85273438 -6.65625 11.26171875 C-5.93511141 8.77636613 -4.90056919 6.98256797 -3.5 4.8125 C-3.0565625 4.11769531 -2.613125 3.42289063 -2.15625 2.70703125 C-1 1 -1 1 0 0 Z " fill="#AF8817" transform="translate(251,155)"/>
<path d="M0 0 C1.12377697 3.30435084 0.89554742 5.0506862 -0.4375 8.25 C-0.86869141 9.30960938 -0.86869141 9.30960938 -1.30859375 10.390625 C-1.53675781 10.92171875 -1.76492187 11.4528125 -2 12 C-2.66 12 -3.32 12 -4 12 C-4.33 12.99 -4.66 13.98 -5 15 C-5.99 15.495 -5.99 15.495 -7 16 C-6.896875 17.175625 -6.79375 18.35125 -6.6875 19.5625 C-6.65652666 23.92974034 -8.06405319 26.16514642 -10.80859375 29.45703125 C-12.21936787 31.10893105 -12.21936787 31.10893105 -13 34 C-14.485 34.495 -14.485 34.495 -16 35 C-16.66 34.67 -17.32 34.34 -18 34 C-18.03738281 34.62648437 -18.07476562 35.25296875 -18.11328125 35.8984375 C-18.21189453 37.12433594 -18.21189453 37.12433594 -18.3125 38.375 C-18.37050781 39.18710938 -18.42851562 39.99921875 -18.48828125 40.8359375 C-19 43 -19 43 -22 45 C-22.36162029 46.32594105 -22.69728039 47.65938457 -23 49 C-23.99 49.495 -23.99 49.495 -25 50 C-25.65555119 52.52733235 -25.65555119 52.52733235 -26 55 C-27.485 55.495 -27.485 55.495 -29 56 C-30.21670772 47.58529031 -26.01984087 42.25838585 -21.5625 35.4375 C-20.82199944 34.2755374 -20.08339998 33.11236113 -19.34667969 31.94799805 C-17.89805246 29.66143467 -16.44189673 27.37999958 -14.97900391 25.10253906 C-12.49832019 21.21350271 -10.10588851 17.27797582 -7.75 13.3125 C-7.10546875 12.23613281 -6.4609375 11.15976563 -5.796875 10.05078125 C-3.83353963 6.71737924 -1.91206569 3.36303588 0 0 Z " fill="#EA7C1C" transform="translate(223,200)"/>
<path d="M0 0 C0.99 0.33 1.98 0.66 3 1 C1.52083866 6.46945703 -1.12966422 10.60713139 -4.25 15.25 C-7.46675407 20.08530905 -10.5429341 24.88922773 -13.3125 30 C-15.55089348 33.85029783 -15.55089348 33.85029783 -19.375 35.125 C-20.24125 35.08375 -21.1075 35.0425 -22 35 C-22.66 34.01 -23.32 33.02 -24 32 C-23.360625 31.71125 -22.72125 31.4225 -22.0625 31.125 C-19.84793921 30.17176549 -19.84793921 30.17176549 -19 28 C-18.34 28 -17.68 28 -17 28 C-17 26.68 -17 25.36 -17 24 C-15.35 23.67 -13.7 23.34 -12 23 C-11.855625 21.96875 -11.71125 20.9375 -11.5625 19.875 C-11.376875 18.59625 -11.19125 17.3175 -11 16 C-10.896875 14.906875 -10.79375 13.81375 -10.6875 12.6875 C-10 10 -10 10 -8.1875 8.625 C-6 8 -6 8 -2 8 C-1.855625 6.865625 -1.71125 5.73125 -1.5625 4.5625 C-1 1 -1 1 0 0 Z " fill="#BE3F24" transform="translate(275,264)"/>
<path d="M0 0 C1.76445076 7.75798191 1.13580098 15.66370331 0.52734375 23.54296875 C-0.16955764 33.66546147 -0.35050065 43.79527825 -0.5625 53.9375 C-0.60581654 55.89258487 -0.64943436 57.84766308 -0.69335938 59.80273438 C-0.79903831 64.53508693 -0.90066786 69.26751015 -1 74 C-1.33 74 -1.66 74 -2 74 C-2.495 38.36 -2.495 38.36 -3 2 C-13.23 1.67 -23.46 1.34 -34 1 C-34 0.67 -34 0.34 -34 0 C-29.64028686 -0.16775443 -25.28038583 -0.32829897 -20.92016602 -0.48217773 C-19.43702051 -0.53553529 -17.95394439 -0.59085973 -16.47094727 -0.64819336 C-14.33885663 -0.73027921 -12.20661621 -0.80528001 -10.07421875 -0.87890625 C-8.14968872 -0.94960327 -8.14968872 -0.94960327 -6.1862793 -1.02172852 C-3 -1 -3 -1 0 0 Z " fill="#9C421C" transform="translate(231,256)"/>
<path d="M0 0 C1.1124494 3.33734821 1.16809985 5.66257186 0 9 C-2.4375 11.1875 -2.4375 11.1875 -5 13 C-7.01976424 14.80894572 -7.01976424 14.80894572 -7.875 16.75 C-9.33756402 19.67512804 -11.18613996 22.27920994 -13 25 C-14.3693297 27.31481925 -15.68573132 29.65309164 -17 32 C-16.34 32.33 -15.68 32.66 -15 33 C-15.66 33 -16.32 33 -17 33 C-17.33 33.99 -17.66 34.98 -18 36 C-19.87617698 37.84499398 -21.92737609 39.3683599 -24 41 C-23.62403791 38.21788056 -23.32681541 36.4120716 -21.5625 34.1875 C-20 33 -20 33 -18 33 C-17.8453125 31.7934375 -17.8453125 31.7934375 -17.6875 30.5625 C-16.11204391 22.39877298 -13.26076499 14.56225633 -8 8 C-7.01 8 -6.02 8 -5 8 C-5 7.34 -5 6.68 -5 6 C-4.01 6 -3.02 6 -2 6 C-2 4.35 -2 2.7 -2 1 C-1.34 0.67 -0.68 0.34 0 0 Z " fill="#DEB219" transform="translate(239,179)"/>
<path d="M0 0 C0.88308838 0.13957123 1.76617676 0.27914246 2.67602539 0.42294312 C14.93800574 2.17425288 27.06664342 2.34731801 39.4375 2.4140625 C41.65666389 2.43281421 43.87582096 2.45239046 46.0949707 2.4727478 C51.88155047 2.52365263 57.66815324 2.56349883 63.45483398 2.60089111 C69.38140357 2.64119473 75.30788089 2.69216558 81.234375 2.7421875 C92.82285146 2.83845235 104.41138053 2.92301227 116 3 C116 3.33 116 3.66 116 4 C101.43155878 4.02333974 86.86312045 4.04091804 72.29466438 4.05181217 C65.53058371 4.05697284 58.76651464 4.06401119 52.00244141 4.07543945 C45.47967446 4.08645478 38.95691506 4.09227779 32.43413925 4.09487724 C29.94055872 4.09673068 27.44697889 4.10034974 24.95340347 4.10573006 C21.47168783 4.11294639 17.99002265 4.11399069 14.50830078 4.11352539 C13.46820862 4.11712067 12.42811646 4.12071594 11.35650635 4.12442017 C10.41137177 4.1230455 9.46623718 4.12167084 8.49246216 4.12025452 C7.25633777 4.12163721 7.25633777 4.12163721 5.99524117 4.12304783 C4 4 4 4 2 3 C2 2.34 2 1.68 2 1 C1.34 0.67 0.68 0.34 0 0 Z " fill="#426023" transform="translate(183,384)"/>
<path d="M0 0 C1.12377697 3.30435084 0.89554742 5.0506862 -0.4375 8.25 C-0.72496094 8.95640625 -1.01242188 9.6628125 -1.30859375 10.390625 C-1.53675781 10.92171875 -1.76492187 11.4528125 -2 12 C-2.66 12 -3.32 12 -4 12 C-4.33 12.99 -4.66 13.98 -5 15 C-5.99 15.495 -5.99 15.495 -7 16 C-6.855625 17.155 -6.71125 18.31 -6.5625 19.5 C-6.50838802 24.55045119 -9.01852409 27.00935864 -12.37109375 30.53125 C-14 32 -14 32 -15 32 C-15.75351815 25.25421846 -13.4037428 21.54104506 -9.75 16 C-8.76480598 14.4588566 -7.78041898 12.91719697 -6.796875 11.375 C-6.0862793 10.27478516 -6.0862793 10.27478516 -5.36132812 9.15234375 C-3.46727336 6.15772632 -1.72758244 3.09319522 0 0 Z " fill="#EE9D18" transform="translate(223,200)"/>
<path d="M0 0 C0.33 0 0.66 0 1 0 C1 1.98 1 3.96 1 6 C14.2 6 27.4 6 41 6 C41 6.33 41 6.66 41 7 C39.35 7.33 37.7 7.66 36 8 C36 8.33 36 8.66 36 9 C20.16 9.495 20.16 9.495 4 10 C3.67 10.66 3.34 11.32 3 12 C2.01 12 1.02 12 0 12 C0 8.04 0 4.08 0 0 Z " fill="#BA7511" transform="translate(256,220)"/>
<path d="M0 0 C12.87 0 25.74 0 39 0 C38.67 1.65 38.34 3.3 38 5 C37.01 5 36.02 5 35 5 C34.67 6.32 34.34 7.64 34 9 C32.35 9 30.7 9 29 9 C29.66 6.69 30.32 4.38 31 2 C20.77 1.67 10.54 1.34 0 1 C0 0.67 0 0.34 0 0 Z " fill="#EA9125" transform="translate(259,227)"/>
<path d="M0 0 C0.33 0 0.66 0 1 0 C1.33 12.21 1.66 24.42 2 37 C2.66 37.33 3.32 37.66 4 38 C4 37.34 4 36.68 4 36 C6.475 35.505 6.475 35.505 9 35 C9 36.32 9 37.64 9 39 C8.34 39 7.68 39 7 39 C7 39.66 7 40.32 7 41 C3.535 41.495 3.535 41.495 0 42 C0 28.14 0 14.28 0 0 Z " fill="#D84234" transform="translate(230,288)"/>
<path d="M0 0 C0.99 0.33 1.98 0.66 3 1 C1.32497468 6.86258862 -0.83212798 11.55475199 -6 15 C-6.99 15 -7.98 15 -9 15 C-9.33 16.32 -9.66 17.64 -10 19 C-10.75 15.75 -10.75 15.75 -11 12 C-9.375 9.5625 -9.375 9.5625 -7 8 C-4.25 7.75 -4.25 7.75 -2 8 C-1.855625 6.865625 -1.71125 5.73125 -1.5625 4.5625 C-1 1 -1 1 0 0 Z " fill="#EB5821" transform="translate(275,264)"/>
<path d="M0 0 C0.99 0 1.98 0 3 0 C3 0.99 3 1.98 3 3 C3.99 3 4.98 3 6 3 C5.67 4.32 5.34 5.64 5 7 C3.68 6.67 2.36 6.34 1 6 C0.7525 6.61875 0.505 7.2375 0.25 7.875 C-1.20628639 10.35068687 -2.37812506 10.95125002 -5 12 C-5 13.65 -5 15.3 -5 17 C-5.99 17 -6.98 17 -8 17 C-8 17.66 -8 18.32 -8 19 C-8.66 18.67 -9.32 18.34 -10 18 C-9.44570312 17.03578125 -8.89140625 16.0715625 -8.3203125 15.078125 C-7.58848403 13.80211639 -6.8567164 12.52607288 -6.125 11.25 C-5.57779297 10.29867187 -5.57779297 10.29867187 -5.01953125 9.328125 C-3.2603169 6.25749632 -1.53126626 3.19148125 0 0 Z " fill="#D29E1C" transform="translate(242,168)"/>
<path d="M0 0 C2 1.375 2 1.375 4 3 C4 3.66 4 4.32 4 5 C4.66 5 5.32 5 6 5 C7.2890625 6.53125 7.2890625 6.53125 8.625 8.5 C9.07101563 9.1496875 9.51703125 9.799375 9.9765625 10.46875 C10.48316406 11.22671875 10.48316406 11.22671875 11 12 C10.01 12.495 10.01 12.495 9 13 C9 12.34 9 11.68 9 11 C8.01 11 7.02 11 6 11 C5.67 10.34 5.34 9.68 5 9 C2.53199953 10.15173355 0.95216435 11.04783565 -1 13 C-0.979375 12.21625 -0.95875 11.4325 -0.9375 10.625 C-0.81315937 8.01885039 -0.81315937 8.01885039 -2 6 C-1.34 5.34 -0.68 4.68 0 4 C0 2.68 0 1.36 0 0 Z " fill="#669632" transform="translate(131,351)"/>
<path d="M0 0 C1.09570312 0.00902344 2.19140625 0.01804688 3.3203125 0.02734375 C4.16335938 0.03894531 5.00640625 0.05054688 5.875 0.0625 C5.215 0.7225 4.555 1.3825 3.875 2.0625 C3.215 2.0625 2.555 2.0625 1.875 2.0625 C1.215 3.7125 0.555 5.3625 -0.125 7.0625 C-1.775 7.0625 -3.425 7.0625 -5.125 7.0625 C-5.125 6.4025 -5.125 5.7425 -5.125 5.0625 C-5.785 5.0625 -6.445 5.0625 -7.125 5.0625 C-7.455 3.7425 -7.785 2.4225 -8.125 1.0625 C-5.36047967 -0.31976016 -3.0788637 -0.03275387 0 0 Z " fill="#F69914" transform="translate(266.125,228.9375)"/>
<path d="M0 0 C1.16796875 1.65234375 1.16796875 1.65234375 2 4 C0.98828125 6.69140625 0.98828125 6.69140625 -0.6875 9.5625 C-1.22761719 10.51253906 -1.76773437 11.46257812 -2.32421875 12.44140625 C-3.74607644 14.61230785 -5.0800211 16.27723947 -7 18 C-7.3129725 12.7837917 -6.85058429 9.43424223 -4 5 C-3.01 4.67 -2.02 4.34 -1 4 C-0.26676204 1.98491642 -0.26676204 1.98491642 0 0 Z " fill="#BF6C1E" transform="translate(298,227)"/>
<path d="M0 0 C1.2065625 0.0309375 1.2065625 0.0309375 2.4375 0.0625 C2.7675 1.0525 3.0975 2.0425 3.4375 3.0625 C2.7775 3.0625 2.1175 3.0625 1.4375 3.0625 C1.4375 3.7225 1.4375 4.3825 1.4375 5.0625 C0.7775 5.0625 0.1175 5.0625 -0.5625 5.0625 C-0.5625 4.4025 -0.5625 3.7425 -0.5625 3.0625 C-1.2225 3.0625 -1.8825 3.0625 -2.5625 3.0625 C-2.645 3.784375 -2.7275 4.50625 -2.8125 5.25 C-3.71963831 8.65176868 -5.16260879 10.51716084 -7.5625 13.0625 C-8.2225 13.0625 -8.8825 13.0625 -9.5625 13.0625 C-8.9330326 9.87939781 -7.81756577 7.59433155 -6.0625 4.875 C-5.6190625 4.18019531 -5.175625 3.48539063 -4.71875 2.76953125 C-2.89057446 0.07050182 -2.89057446 0.07050182 0 0 Z " fill="#B8881F" transform="translate(253.5625,154.9375)"/>
<path d="M0 0 C0.66 0.66 1.32 1.32 2 2 C1.67 2.33 1.34 2.66 1 3 C-1.05802833 2.79419717 -3.11549482 2.57953457 -5.16796875 2.32421875 C-10.43062742 1.72173507 -15.71761397 1.3837282 -21 1 C-21 0.67 -21 0.34 -21 0 C-13.64312993 -1.81823785 -7.27792862 -2.56365392 0 0 Z " fill="#5B8730" transform="translate(317,108)"/>
<path d="M0 0 C2.4375 0.8125 2.4375 0.8125 5 2 C5.33 2.99 5.66 3.98 6 5 C6.66 5 7.32 5 8 5 C8.474375 5.495 8.94875 5.99 9.4375 6.5 C10.99969942 8.34626591 10.99969942 8.34626591 14 8 C13.67 9.32 13.34 10.64 13 12 C13.66 12.33 14.32 12.66 15 13 C15 13.66 15 14.32 15 15 C11.84164893 13.60249952 9.67727175 11.94801766 7.25 9.5 C6.63640625 8.8915625 6.0228125 8.283125 5.390625 7.65625 C4 6 4 6 4 4 C3.34 4 2.68 4 2 4 C1.34 2.68 0.68 1.36 0 0 Z " fill="#597C32" transform="translate(119,360)"/>
<path d="M0 0 C0.93423645 3.01031744 1.04449911 3.86650268 0 7 C-0.66 7 -1.32 7 -2 7 C-2.12375 8.093125 -2.2475 9.18625 -2.375 10.3125 C-3 14 -3 14 -5 17 C-4.34 17.33 -3.68 17.66 -3 18 C-3.66 18 -4.32 18 -5 18 C-5.33 18.99 -5.66 19.98 -6 21 C-7.87617698 22.84499398 -9.92737609 24.3683599 -12 26 C-11.62403791 23.21788056 -11.32681541 21.4120716 -9.5625 19.1875 C-8 18 -8 18 -6 18 C-5.8453125 16.7934375 -5.8453125 16.7934375 -5.6875 15.5625 C-4.61103966 9.98447823 -3.16520974 4.74781462 0 0 Z " fill="#D7A91C" transform="translate(227,194)"/>
<path d="M0 0 C2.375 0.25 2.375 0.25 5 1 C6.1640625 3.046875 6.1640625 3.046875 7 5 C5.54550599 6.0055761 4.08627557 7.00430435 2.625 8 C1.40683594 8.8353125 1.40683594 8.8353125 0.1640625 9.6875 C-2 11 -2 11 -4 11 C-4 10.01 -4 9.02 -4 8 C-2.68 7.34 -1.36 6.68 0 6 C0 4.02 0 2.04 0 0 Z " fill="#5B872F" transform="translate(353,376)"/>
<path d="M0 0 C0.66 0.33 1.32 0.66 2 1 C2 1.99 2 2.98 2 4 C1.236875 4.2475 0.47375 4.495 -0.3125 4.75 C-3.10595884 5.7874057 -3.10595884 5.7874057 -4.5625 8.125 C-5.036875 8.74375 -5.51125 9.3625 -6 10 C-7.32 10 -8.64 10 -10 10 C-10 10.66 -10 11.32 -10 12 C-11.65 12 -13.3 12 -15 12 C-11.99764638 8.82608332 -8.80246358 6.28747399 -5.25 3.75 C-4.26515625 3.04359375 -3.2803125 2.3371875 -2.265625 1.609375 C-1.51796875 1.07828125 -0.7703125 0.5471875 0 0 Z " fill="#587E2E" transform="translate(356,363)"/>
<path d="M0 0 C0.66 0 1.32 0 2 0 C1.34027755 3.53776166 -0.12435428 6.13506693 -2 9.1875 C-2.53625 10.06792969 -3.0725 10.94835937 -3.625 11.85546875 C-5 14 -5 14 -6 15 C-7.99958364 15.04080783 -10.00045254 15.04254356 -12 15 C-12.33 14.34 -12.66 13.68 -13 13 C-9.535 12.505 -9.535 12.505 -6 12 C-6 11.34 -6 10.68 -6 10 C-5.34 10 -4.68 10 -4 10 C-4 8.35 -4 6.7 -4 5 C-2.68 4.34 -1.36 3.68 0 3 C0 2.01 0 1.02 0 0 Z " fill="#9D2826" transform="translate(243,317)"/>
<path d="M0 0 C0.99 0.33 1.98 0.66 3 1 C1.38731308 3.71224618 -0.24901874 6.37352812 -2 9 C-2.66 9 -3.32 9 -4 9 C-4.226875 9.5775 -4.45375 10.155 -4.6875 10.75 C-6.33038023 13.5663661 -8.39533227 15.08077114 -11 17 C-11 15.68 -11 14.36 -11 13 C-10.01 13 -9.02 13 -8 13 C-7.67 11.35 -7.34 9.7 -7 8 C-5.68 8 -4.36 8 -3 8 C-2.87625 7.4225 -2.7525 6.845 -2.625 6.25 C-1.99351176 3.97664233 -1.11141809 2.0746471 0 0 Z " fill="#567B30" transform="translate(381,355)"/>
<path d="M0 0 C0.96862277 3.37934846 0.92663319 4.97608033 -0.4375 8.25 C-0.72496094 8.95640625 -1.01242188 9.6628125 -1.30859375 10.390625 C-1.53675781 10.92171875 -1.76492187 11.4528125 -2 12 C-2.66 12 -3.32 12 -4 12 C-4.33 12.99 -4.66 13.98 -5 15 C-5.99 15.495 -5.99 15.495 -7 16 C-8.13350534 18.01669827 -8.13350534 18.01669827 -9 20 C-10 17 -10 17 -9.19555664 15.09887695 C-8.77137451 14.40238037 -8.34719238 13.70588379 -7.91015625 12.98828125 C-7.45576172 12.23095703 -7.00136719 11.47363281 -6.53320312 10.69335938 C-6.04787109 9.90767578 -5.56253906 9.12199219 -5.0625 8.3125 C-4.34030273 7.11657227 -4.34030273 7.11657227 -3.60351562 5.89648438 C-2.41134561 3.92527257 -1.2099739 1.96031588 0 0 Z " fill="#AF871E" transform="translate(223,200)"/>
<path d="M0 0 C0.33 0.99 0.66 1.98 1 3 C1.99 3.33 2.98 3.66 4 4 C4 4.99 4 5.98 4 7 C4.66 7.33 5.32 7.66 6 8 C5.979375 8.78375 5.95875 9.5675 5.9375 10.375 C5.81315937 12.98114961 5.81315937 12.98114961 7 15 C6.0625 17.625 6.0625 17.625 5 20 C4.67 20 4.34 20 4 20 C0.74031891 6.3667426 0.74031891 6.3667426 0 0 Z " fill="#699938" transform="translate(384,169)"/>
<path d="M0 0 C0.66 0 1.32 0 2 0 C0.56954422 3.89283238 -1.24678267 7.29321861 -3.4375 10.8125 C-4.03433594 11.78832031 -4.63117188 12.76414062 -5.24609375 13.76953125 C-5.82488281 14.50558594 -6.40367187 15.24164063 -7 16 C-7.99 16 -8.98 16 -10 16 C-10 15.34 -10 14.68 -10 14 C-9.34 14 -8.68 14 -8 14 C-8 13.01 -8 12.02 -8 11 C-7.34 11 -6.68 11 -6 11 C-6 10.34 -6 9.68 -6 9 C-5.34 9 -4.68 9 -4 9 C-3.8453125 8.1646875 -3.8453125 8.1646875 -3.6875 7.3125 C-2.85821592 4.5230899 -1.65700944 2.3860936 0 0 Z " fill="#B1571E" transform="translate(287,248)"/>
<path d="M0 0 C0.33 0 0.66 0 1 0 C1.22278071 2.56197812 1.42862563 5.12347556 1.625 7.6875 C1.72167969 8.7693457 1.72167969 8.7693457 1.8203125 9.87304688 C2.13102342 14.12590254 1.97020088 17.18743571 0 21 C-0.66 21 -1.32 21 -2 21 C-2.33 21.99 -2.66 22.98 -3 24 C-2.85691406 23.02933594 -2.71382813 22.05867188 -2.56640625 21.05859375 C-1.94875387 16.73502712 -1.43935939 12.4007956 -0.9375 8.0625 C-0.84662109 7.28326172 -0.75574219 6.50402344 -0.66210938 5.70117188 C-0.44060235 3.80087478 -0.22018718 1.90045047 0 0 Z " fill="#4E702C" transform="translate(389,296)"/>
<path d="M0 0 C1.65 1.32 3.3 2.64 5 4 C4.67 4.66 4.34 5.32 4 6 C1.67843403 6.40729228 -0.6568787 6.74438677 -3 7 C-3.33 7.99 -3.66 8.98 -4 10 C-4.6875 7.75 -4.6875 7.75 -5 5 C-3.5625 2.6875 -3.5625 2.6875 -2 1 C-1.34 1.33 -0.68 1.66 0 2 C0 1.34 0 0.68 0 0 Z " fill="#74B333" transform="translate(372,125)"/>
<path d="M0 0 C0.99 0.66 1.98 1.32 3 2 C1.88147781 3.98283479 0.75498675 5.96117623 -0.375 7.9375 C-1.31472656 9.59072266 -1.31472656 9.59072266 -2.2734375 11.27734375 C-4 14 -4 14 -6 15 C-6 13.68 -6 12.36 -6 11 C-5.34 11 -4.68 11 -4 11 C-4 9.02 -4 7.04 -4 5 C-3.01 4.67 -2.02 4.34 -1 4 C-0.26676204 1.98491642 -0.26676204 1.98491642 0 0 Z " fill="#567A2F" transform="translate(390,341)"/>
<path d="M0 0 C0.66 0.99 1.32 1.98 2 3 C1.34 4.32 0.68 5.64 0 7 C0.66 7.66 1.32 8.32 2 9 C-0.97 11.475 -0.97 11.475 -4 14 C-5.06528748 11.26980214 -5.07998186 10.20701188 -4.00390625 7.421875 C-3.52824219 6.54015625 -3.05257812 5.6584375 -2.5625 4.75 C-2.08941406 3.85796875 -1.61632812 2.9659375 -1.12890625 2.046875 C-0.75636719 1.37140625 -0.38382812 0.6959375 0 0 Z " fill="#6C9737" transform="translate(110,147)"/>
<path d="M0 0 C0.99 0.495 0.99 0.495 2 1 C3.20255163 5.07657438 3.10196591 9.08964742 3.0625 13.3125 C3.05347656 14.56675781 3.04445313 15.82101562 3.03515625 17.11328125 C3.01775391 18.54220703 3.01775391 18.54220703 3 20 C2.67 20 2.34 20 2 20 C0.57997892 13.2168636 -0.22731216 6.93302093 0 0 Z " fill="#5F8736" transform="translate(96,301)"/>
<path d="M0 0 C1.10914742 3.32744227 1.03211839 5.64561525 0 9 C-1.4375 10.8125 -1.4375 10.8125 -3 12 C-3.66 12 -4.32 12 -5 12 C-5 10.02 -5 8.04 -5 6 C-4.01 6 -3.02 6 -2 6 C-2 4.35 -2 2.7 -2 1 C-1.34 0.67 -0.68 0.34 0 0 Z " fill="#F7BE14" transform="translate(239,179)"/>
<path d="M0 0 C0.33 1.32 0.66 2.64 1 4 C0.34 4 -0.32 4 -1 4 C-1 4.66 -1 5.32 -1 6 C-2.98 6.33 -4.96 6.66 -7 7 C-7 5.68 -7 4.36 -7 3 C-6.01 3 -5.02 3 -4 3 C-4 2.34 -4 1.68 -4 1 C-2.68 0.67 -1.36 0.34 0 0 Z " fill="#E3342A" transform="translate(238,323)"/>
<path d="M0 0 C0.99 0.33 1.98 0.66 3 1 C1.68315519 5.60895683 -0.15198745 9.14140235 -3 13 C-3.33 13 -3.66 13 -4 13 C-4 11.35 -4 9.7 -4 8 C-3.34 8 -2.68 8 -2 8 C-1.855625 6.865625 -1.71125 5.73125 -1.5625 4.5625 C-1 1 -1 1 0 0 Z " fill="#BA4D1D" transform="translate(275,264)"/>
<path d="M0 0 C0.66 0.33 1.32 0.66 2 1 C1.71517632 2.41805831 1.42181856 3.83440379 1.125 5.25 C0.96257812 6.03890625 0.80015625 6.8278125 0.6328125 7.640625 C0.00849925 9.96831144 -0.84838542 11.89031952 -2 14 C-2.33 13.01 -2.66 12.02 -3 11 C-3.66 11 -4.32 11 -5 11 C-5 10.34 -5 9.68 -5 9 C-4.01 9 -3.02 9 -2 9 C-2 7.68 -2 6.36 -2 5 C-1.34 5 -0.68 5 0 5 C0 3.35 0 1.7 0 0 Z " fill="#547E2E" transform="translate(399,320)"/>
<path d="M0 0 C0.99 0.33 1.98 0.66 3 1 C3.33 1.99 3.66 2.98 4 4 C3.34 4 2.68 4 2 4 C2.33 4.99 2.66 5.98 3 7 C2.01 7 1.02 7 0 7 C-0.66 7.66 -1.32 8.32 -2 9 C-2.6875 6.75 -2.6875 6.75 -3 4 C-1.5625 1.6875 -1.5625 1.6875 0 0 Z " fill="#F26A1B" transform="translate(275,258)"/>
<path d="M0 0 C0.28875 0.639375 0.5775 1.27875 0.875 1.9375 C1.82823451 4.15206079 1.82823451 4.15206079 4 5 C2.75 6.5625 2.75 6.5625 1 8 C-1.1875 7.6875 -1.1875 7.6875 -3 7 C-3 7.99 -3 8.98 -3 10 C-3.66 10 -4.32 10 -5 10 C-3.66511872 6.40608886 -2.03977277 3.24509304 0 0 Z " fill="#BF7818" transform="translate(207,227)"/>
<path d="M0 0 C5.28 0.66 10.56 1.32 16 2 C16 2.66 16 3.32 16 4 C14.04174127 4.02694851 12.08337774 4.04637218 10.125 4.0625 C9.03445312 4.07410156 7.94390625 4.08570313 6.8203125 4.09765625 C4 4 4 4 2 3 C2 2.34 2 1.68 2 1 C1.34 0.67 0.68 0.34 0 0 Z " fill="#51732E" transform="translate(183,384)"/>
<path d="M0 0 C1 3 1 3 0 6.0625 C-2 9 -2 9 -5.6875 10.375 C-6.780625 10.58125 -7.87375 10.7875 -9 11 C-8.04956626 9.66102417 -7.08940853 8.32894573 -6.125 7 C-5.59132813 6.2575 -5.05765625 5.515 -4.5078125 4.75 C-4.01023437 4.1725 -3.51265625 3.595 -3 3 C-2.34 3 -1.68 3 -1 3 C-0.67 2.01 -0.34 1.02 0 0 Z " fill="#5C7D2F" transform="translate(368,351)"/>
<path d="M0 0 C0 0.99 0 1.98 0 3 C0.31088368 4.67099977 0.64080332 6.33871537 1 8 C0.01 7.67 -0.98 7.34 -2 7 C-2.33 7.99 -2.66 8.98 -3 10 C-3.66 7.69 -4.32 5.38 -5 3 C-3.35 2.01 -1.7 1.02 0 0 Z " fill="#DC342A" transform="translate(245,310)"/>
<path d="M0 0 C0.33 0.99 0.66 1.98 1 3 C1.66 3 2.32 3 3 3 C2 5 2 5 -1 7 C-1.99 6.34 -2.98 5.68 -4 5 C-2.25 1.125 -2.25 1.125 0 0 Z " fill="#78B332" transform="translate(391,171)"/>
<path d="M0 0 C0.33 0.99 0.66 1.98 1 3 C1.9590625 3.1546875 1.9590625 3.1546875 2.9375 3.3125 C3.618125 3.539375 4.29875 3.76625 5 4 C6.25 7.0625 6.25 7.0625 7 10 C6.34 10 5.68 10 5 10 C3.2734375 8.25 3.2734375 8.25 1.375 6 C0.74335938 5.2575 0.11171875 4.515 -0.5390625 3.75 C-1.02117187 3.1725 -1.50328125 2.595 -2 2 C-1.34 1.34 -0.68 0.68 0 0 Z " fill="#55792D" transform="translate(362,134)"/>
<path d="M0 0 C0.33 0.99 0.66 1.98 1 3 C1.66 3 2.32 3 3 3 C2.67 4.65 2.34 6.3 2 8 C1.01 8.33 0.02 8.66 -1 9 C-1.09765625 2.84765625 -1.09765625 2.84765625 -1 1 C-0.67 0.67 -0.34 0.34 0 0 Z " fill="#C05B1D" transform="translate(195,247)"/>
<path d="M0 0 C0.99 0 1.98 0 3 0 C4 3 4 3 4 6 C1.36 5.34 -1.28 4.68 -4 4 C-3.34 3.67 -2.68 3.34 -2 3 C-1.67 2.34 -1.34 1.68 -1 1 C-0.67 0.67 -0.34 0.34 0 0 Z " fill="#65972E" transform="translate(322,108)"/>
<path d="M0 0 C0 0.66 0 1.32 0 2 C-0.804375 2.12375 -1.60875 2.2475 -2.4375 2.375 C-3.7059375 2.684375 -3.7059375 2.684375 -5 3 C-5.33 3.66 -5.66 4.32 -6 5 C-8.475 4.01 -8.475 4.01 -11 3 C-11 2.67 -11 2.34 -11 2 C-7.12315913 0.80712589 -4.08378077 0 0 0 Z " fill="#53762C" transform="translate(325,382)"/>
<path d="M0 0 C0.66 0.99 1.32 1.98 2 3 C1.34 3 0.68 3 0 3 C0 3.66 0 4.32 0 5 C0.66 5.33 1.32 5.66 2 6 C1.34 6 0.68 6 0 6 C0.33 6.99 0.66 7.98 1 9 C0.01 9.495 0.01 9.495 -1 10 C-1.66 9.67 -2.32 9.34 -3 9 C-2.01 6.03 -1.02 3.06 0 0 Z " fill="#507126" transform="translate(385,320)"/>
<path d="M0 0 C0.99 0.33 1.98 0.66 3 1 C2.34 1 1.68 1 1 1 C0.67 1.99 0.34 2.98 0 4 C-1.87617698 5.84499398 -3.92737609 7.3683599 -6 9 C-5.70381606 5.44579276 -5.19662957 4.19662957 -2.625 1.625 C-1.325625 0.820625 -1.325625 0.820625 0 0 Z " fill="#F3AD15" transform="translate(221,211)"/>
<path d="M0 0 C1.65 0 3.3 0 5 0 C2.03 3.96 2.03 3.96 -1 8 C-2 4 -2 4 -1.0625 1.75 C-0.711875 1.1725 -0.36125 0.595 0 0 Z " fill="#5D8D2F" transform="translate(134,136)"/>
<path d="M0 0 C0.33 0.99 0.66 1.98 1 3 C-1.39509338 5.89932357 -3.31245243 6.50168276 -7 7 C-2.25 1.125 -2.25 1.125 0 0 Z " fill="#56742F" transform="translate(133,120)"/>
<path d="M0 0 C0 3.90838866 -1.50567876 5.11594107 -4 8 C-4.33 5.69 -4.66 3.38 -5 1 C-3.35 0.67 -1.7 0.34 0 0 Z " fill="#992B1E" transform="translate(257,298)"/>
<path d="M0 0 C1.33332095 2.6666419 0.67102033 4.16680303 0 7 C-0.66 7 -1.32 7 -2 7 C-2 7.66 -2 8.32 -2 9 C-2.99 9.33 -3.98 9.66 -5 10 C-3.66511872 6.40608886 -2.03977277 3.24509304 0 0 Z " fill="#915116" transform="translate(201,237)"/>
<path d="M0 0 C0.33 0 0.66 0 1 0 C0.25 6.75 0.25 6.75 -2 9 C-2.66 8.67 -3.32 8.34 -4 8 C-2.87548273 5.0280615 -1.77706209 2.66559313 0 0 Z " fill="#AD761C" transform="translate(212,219)"/>
<path d="M0 0 C5.57142857 5.14285714 5.57142857 5.14285714 6 9 C5.01 8.67 4.02 8.34 3 8 C3 7.34 3 6.68 3 6 C2.34 6 1.68 6 1 6 C0.67 4.02 0.34 2.04 0 0 Z " fill="#55742C" transform="translate(383,138)"/>
<path d="M0 0 C1.65 1.32 3.3 2.64 5 4 C4.67 4.66 4.34 5.32 4 6 C2.02 5.34 0.04 4.68 -2 4 C-2 3.01 -2 2.02 -2 1 C-1.34 1.33 -0.68 1.66 0 2 C0 1.34 0 0.68 0 0 Z " fill="#587F2B" transform="translate(372,125)"/>
<path d="M0 0 C0.94875 0.350625 1.8975 0.70125 2.875 1.0625 C0.875 3.0625 0.875 3.0625 -2.25 3.1875 C-3.673125 3.125625 -3.673125 3.125625 -5.125 3.0625 C-5.125 2.0725 -5.125 1.0825 -5.125 0.0625 C-3.125 -0.9375 -3.125 -0.9375 0 0 Z " fill="#77B53A" transform="translate(180.125,100.9375)"/>
<path d="M0 0 C2.2477975 2.05233685 3.0022242 3.00667261 4 6 C3.01 7.485 3.01 7.485 2 9 C1.34 8.67 0.68 8.34 0 8 C0 5.36 0 2.72 0 0 Z " fill="#5F8931" transform="translate(122,338)"/>
<path d="M0 0 C0.66 0.99 1.32 1.98 2 3 C1.01 3.495 1.01 3.495 0 4 C-0.72159424 5.64363134 -1.39351421 7.31050386 -2 9 C-2.66 9 -3.32 9 -4 9 C-3.71848913 7.68528432 -3.42446661 6.37324233 -3.125 5.0625 C-2.96257812 4.33160156 -2.80015625 3.60070312 -2.6328125 2.84765625 C-2 1 -2 1 0 0 Z " fill="#71A340" transform="translate(389,316)"/>
<path d="M0 0 C0 1.65 0 3.3 0 5 C-2.4375 4.625 -2.4375 4.625 -5 4 C-5.33 3.34 -5.66 2.68 -6 2 C-2.25 0 -2.25 0 0 0 Z " fill="#EA3E27" transform="translate(257,294)"/>
<path d="M0 0 C0.66 0.99 1.32 1.98 2 3 C1.34 3 0.68 3 0 3 C0 4.65 0 6.3 0 8 C-0.99 8 -1.98 8 -3 8 C-3 8.66 -3 9.32 -3 10 C-3.66 9.67 -4.32 9.34 -5 9 C-3.35 6.03 -1.7 3.06 0 0 Z " fill="#B99821" transform="translate(237,177)"/>
<path d="M0 0 C-3.28463659 2.18975773 -6.20696275 2.99806563 -10 4 C-10.33 3.34 -10.66 2.68 -11 2 C-7.36576791 -0.32590854 -4.22911669 -0.16265833 0 0 Z " fill="#648B30" transform="translate(179,112)"/>
<path d="M0 0 C0.66 0.66 1.32 1.32 2 2 C1.9765625 4.1640625 1.9765625 4.1640625 1.625 6.625 C1.51414062 7.44226563 1.40328125 8.25953125 1.2890625 9.1015625 C1.19367188 9.72804688 1.09828125 10.35453125 1 11 C-1.78637633 6.8204355 -0.79562512 4.85331323 0 0 Z " fill="#5D7E33" transform="translate(401,310)"/>
<path d="M0 0 C0.33 0.99 0.66 1.98 1 3 C1.99 3.33 2.98 3.66 4 4 C3.67 6.31 3.34 8.62 3 11 C0.87953208 7.46588679 0.46800711 4.05606165 0 0 Z " fill="#5E8532" transform="translate(384,169)"/>
<path d="M0 0 C0.66 0.33 1.32 0.66 2 1 C2 1.99 2 2.98 2 4 C-0.31 4.33 -2.62 4.66 -5 5 C-3.35 3.35 -1.7 1.7 0 0 Z " fill="#52732D" transform="translate(356,363)"/>
<path d="M0 0 C0.33 0.66 0.66 1.32 1 2 C3.01669827 3.13350534 3.01669827 3.13350534 5 4 C4.34 4 3.68 4 3 4 C2.67 4.66 2.34 5.32 2 6 C0.68 5.67 -0.64 5.34 -2 5 C-1.34 3.35 -0.68 1.7 0 0 Z " fill="#5E8E2C" transform="translate(377,338)"/>
<path d="M0 0 C0.66 0 1.32 0 2 0 C3.0326802 2.78823655 3.04509293 3.8677274 2.0625 6.75 C1.711875 7.4925 1.36125 8.235 1 9 C0.67 9 0.34 9 0 9 C0 6.03 0 3.06 0 0 Z " fill="#62912F" transform="translate(116,162)"/>
<path d="M0 0 C0.33 0.66 0.66 1.32 1 2 C-0.25 5.0625 -0.25 5.0625 -2 8 C-2.99 8.33 -3.98 8.66 -5 9 C-3.7508258 5.54074837 -2.32472205 2.85306797 0 0 Z " fill="#4B6428" transform="translate(116,138)"/>
<path d="M0 0 C3.37503669 1.1858237 5.64722731 2.27573689 8 5 C4.40142046 5 2.90548882 4.04169485 0 2 C0 1.34 0 0.68 0 0 Z " fill="#628435" transform="translate(347,107)"/>
<path d="M0 0 C3.14624993 -0.26218749 4.61837017 -0.24754367 7.3125 1.5 C8.1478125 2.2425 8.1478125 2.2425 9 3 C6.03 2.67 3.06 2.34 0 2 C0 1.34 0 0.68 0 0 Z " fill="#78A541" transform="translate(180,396)"/>
<path d="M0 0 C2.5 2.3125 2.5 2.3125 5 5 C5 5.99 5 6.98 5 8 C4.67 7.34 4.34 6.68 4 6 C3.01 6 2.02 6 1 6 C0.67 4.02 0.34 2.04 0 0 Z " fill="#5A802C" transform="translate(136,356)"/>
<path d="M0 0 C0 3.90838866 -1.50567876 5.11594107 -4 8 C-4 6.02 -4 4.04 -4 2 C-2.68 1.34 -1.36 0.68 0 0 Z " fill="#A5371C" transform="translate(270,277)"/>
<path d="M0 0 C0.99 0.33 1.98 0.66 3 1 C3.33 2.65 3.66 4.3 4 6 C2.68 6.33 1.36 6.66 0 7 C0 4.69 0 2.38 0 0 Z " fill="#679535" transform="translate(395,162)"/>
</svg>
