<?xml version="1.0" encoding="UTF-8"?>
<svg version="1.1" xmlns="http://www.w3.org/2000/svg" width="500" height="500">
<path d="M0 0 C4.04922109 0.00513077 8.09843396 0.00034919 12.14765549 -0.00277233 C18.94235003 -0.00639165 25.73700082 -0.00166672 32.53168869 0.00790882 C40.34168473 0.01878942 48.15157627 0.01526239 55.96156979 0.00425601 C62.71627147 -0.00487529 69.47094205 -0.00607382 76.22564793 -0.00086665 C80.23839462 0.00222118 84.25109252 0.0027517 88.26383591 -0.00393963 C127.68875462 -0.06057485 159.24128148 6.04759553 192.950634 27.26865101 C193.90067307 27.80103382 194.85071213 28.33341663 195.82954025 28.88193226 C196.52950119 29.33954945 197.22946213 29.79716663 197.950634 30.26865101 C197.950634 30.92865101 197.950634 31.58865101 197.950634 32.26865101 C198.51266525 32.52646351 199.0746965 32.78427601 199.653759 33.04990101 C202.21767979 34.41034877 204.40289766 35.99654062 206.700634 37.76865101 C207.49985275 38.37708851 208.2990715 38.98552601 209.122509 39.61240101 C209.72579025 40.15896351 210.3290715 40.70552601 210.950634 41.26865101 C210.950634 41.92865101 210.950634 42.58865101 210.950634 43.26865101 C211.610634 43.26865101 212.270634 43.26865101 212.950634 43.26865101 C212.950634 43.92865101 212.950634 44.58865101 212.950634 45.26865101 C213.610634 45.26865101 214.270634 45.26865101 214.950634 45.26865101 C214.950634 45.92865101 214.950634 46.58865101 214.950634 47.26865101 C215.610634 47.26865101 216.270634 47.26865101 216.950634 47.26865101 C216.950634 47.92865101 216.950634 48.58865101 216.950634 49.26865101 C217.610634 49.26865101 218.270634 49.26865101 218.950634 49.26865101 C220.76463307 51.3564045 222.46149352 53.44936922 224.138134 55.64365101 C224.87906296 56.60223011 224.87906296 56.60223011 225.63496017 57.58017445 C229.56897048 62.70048957 233.39083306 67.87938274 236.950634 73.26865101 C237.44950119 74.01888538 237.94836838 74.76911976 238.46235275 75.54208851 C249.82648245 93.49800998 255.91653582 114.40104049 258.950634 135.26865101 C259.21058718 136.91938633 259.21058718 136.91938633 259.47579193 138.60346985 C259.91595141 142.00094517 260.08155236 145.22363838 260.0910759 148.64592457 C260.09678604 149.88324329 260.10249619 151.12056202 260.10837936 152.39537525 C260.10962446 153.74872293 260.11074961 155.10207072 260.11176682 156.45541859 C260.11640156 157.89520868 260.12142709 159.33499756 260.12681198 160.77478504 C260.13988216 164.67421465 260.14637138 168.57362708 260.15082264 172.47307515 C260.15376447 174.91772484 260.1578715 177.36236996 260.16232681 179.80701733 C260.17599285 187.47969025 260.18566165 195.15235258 260.1895287 202.82503682 C260.19399553 211.63612333 260.21148293 220.44705363 260.2405293 229.2580927 C260.2622778 236.09667829 260.27224009 242.93522039 260.27356982 249.77384013 C260.27460927 253.84437948 260.28032974 257.91477186 260.29838943 261.98527431 C260.43440454 294.50157055 260.43440454 294.50157055 256.950634 309.26865101 C256.79637703 309.9336241 256.64212006 310.59859718 256.48318863 311.28372097 C250.72413876 335.93537741 239.53428971 358.11121193 222.950634 377.26865101 C222.09340744 378.26122913 221.23618088 379.25380726 220.35297775 380.27646351 C196.00785381 407.92007319 161.45270853 425.78406279 124.950634 430.26865101 C119.57376887 430.55516003 114.20519796 430.57338923 108.82270432 430.57504749 C107.23427575 430.58268704 105.64585083 430.59111755 104.05743027 430.60027027 C99.77360081 430.6220567 95.48984267 430.63099369 91.20596409 430.63609672 C88.51616788 430.63976192 85.82638973 430.64601322 83.13660049 430.65309811 C73.71376365 430.67754634 64.2909814 430.69063258 54.86811447 430.69418812 C46.14995189 430.69781049 37.43214411 430.7276243 28.71408963 430.7695927 C21.17976505 430.80456227 13.64555642 430.81974119 6.11115146 430.82043415 C1.63351848 430.82121855 -2.843753 430.8295617 -7.32130051 430.85843182 C-32.62731448 431.01152762 -56.57771631 429.82203268 -80.049366 419.26865101 C-80.70308182 418.97619495 -81.35679764 418.6837389 -82.03032303 418.38242054 C-102.44659592 409.07362511 -124.76102402 394.61712321 -138.049366 376.26865101 C-138.049366 375.60865101 -138.049366 374.94865101 -138.049366 374.26865101 C-138.709366 374.26865101 -139.369366 374.26865101 -140.049366 374.26865101 C-141.8541238 371.92915015 -143.52849178 369.5921532 -145.174366 367.14365101 C-145.66646561 366.41589466 -146.15856522 365.68813831 -146.66557693 364.93832874 C-157.25452209 349.10830355 -165.04603882 332.68191091 -170.049366 314.26865101 C-170.35294022 313.16070179 -170.35294022 313.16070179 -170.66264725 312.03036976 C-173.69684712 299.73143746 -174.34829752 287.02025069 -174.30815506 274.41147327 C-174.31087597 273.00814096 -174.31444298 271.60481008 -174.31877518 270.20148182 C-174.32777176 266.44310657 -174.32440824 262.68484304 -174.31801701 258.92646623 C-174.31288905 254.95865159 -174.31766715 250.99084537 -174.32078934 247.02303028 C-174.32440988 240.3635944 -174.31968091 233.70420313 -174.31010818 227.04477406 C-174.29923184 219.39100838 -174.30275103 211.73734937 -174.313761 204.08358628 C-174.32289415 197.46478455 -174.32408981 190.84601456 -174.31888366 184.22720855 C-174.31579625 180.29493018 -174.31526399 176.3627016 -174.32195663 172.4304266 C-174.35266068 151.47639112 -173.93470469 131.54775896 -168.049366 111.26865101 C-167.68971756 110.02341663 -167.33006912 108.77818226 -166.95952225 107.49521351 C-161.89952878 91.24190116 -153.46231565 76.38807549 -144.049366 62.26865101 C-143.389366 62.26865101 -142.729366 62.26865101 -142.049366 62.26865101 C-141.7915535 61.70661976 -141.533741 61.14458851 -141.268116 60.56552601 C-139.90766823 58.00160522 -138.32147638 55.81638735 -136.549366 53.51865101 C-135.9409285 52.71943226 -135.332491 51.92021351 -134.705616 51.09677601 C-134.1590535 50.49349476 -133.612491 49.89021351 -133.049366 49.26865101 C-132.389366 49.26865101 -131.729366 49.26865101 -131.049366 49.26865101 C-131.049366 48.60865101 -131.049366 47.94865101 -131.049366 47.26865101 C-130.389366 47.26865101 -129.729366 47.26865101 -129.049366 47.26865101 C-129.049366 46.60865101 -129.049366 45.94865101 -129.049366 45.26865101 C-128.389366 45.26865101 -127.729366 45.26865101 -127.049366 45.26865101 C-127.049366 44.60865101 -127.049366 43.94865101 -127.049366 43.26865101 C-126.389366 43.26865101 -125.729366 43.26865101 -125.049366 43.26865101 C-125.049366 42.60865101 -125.049366 41.94865101 -125.049366 41.26865101 C-123.31544648 39.66231086 -121.511275 38.13112231 -119.674366 36.64365101 C-118.67663162 35.82638538 -117.67889725 35.00911976 -116.6509285 34.16708851 C-114.049366 32.26865101 -114.049366 32.26865101 -112.049366 32.26865101 C-112.049366 31.60865101 -112.049366 30.94865101 -112.049366 30.26865101 C-78.26745226 5.15418698 -40.93456162 -0.06825919 0 0 Z M-85.049366 39.26865101 C-85.96202225 39.76107288 -86.8746785 40.25349476 -87.814991 40.76083851 C-92.87396633 43.64935023 -97.53412806 47.00979622 -102.174366 50.51865101 C-102.75597488 50.95548206 -103.33758377 51.39231312 -103.93681717 51.84238148 C-105.34771017 52.93461716 -106.70422228 54.0963941 -108.049366 55.26865101 C-108.049366 55.92865101 -108.049366 56.58865101 -108.049366 57.26865101 C-108.709366 57.26865101 -109.369366 57.26865101 -110.049366 57.26865101 C-110.049366 57.92865101 -110.049366 58.58865101 -110.049366 59.26865101 C-110.709366 59.26865101 -111.369366 59.26865101 -112.049366 59.26865101 C-114.71603266 61.60198434 -114.71603266 61.60198434 -117.049366 64.26865101 C-117.049366 64.92865101 -117.049366 65.58865101 -117.049366 66.26865101 C-117.709366 66.26865101 -118.369366 66.26865101 -119.049366 66.26865101 C-120.66987676 68.085216 -122.14693066 69.89372753 -123.611866 71.83115101 C-124.05441727 72.41469349 -124.49696854 72.99823597 -124.95293045 73.59946156 C-143.24663935 98.18560642 -152.18806161 125.49053911 -152.21049881 156.08139515 C-152.21513586 157.5641336 -152.22016169 159.04687088 -152.22554398 160.52960682 C-152.23858615 164.53621833 -152.24509704 168.54281314 -152.24955463 172.54944253 C-152.25249914 175.06075621 -152.25660649 177.57206546 -152.26105881 180.08337688 C-152.2747133 187.96427387 -152.28438949 195.84516057 -152.2882607 203.72606856 C-152.29273404 212.77939521 -152.31025691 221.83257034 -152.33926129 230.88585097 C-152.36098171 237.91297901 -152.3709705 244.94006476 -152.37230182 251.96722597 C-152.37334262 256.1505706 -152.3790939 260.33377241 -152.39712143 264.51708126 C-152.41378216 268.45951155 -152.41567192 272.40169441 -152.40698242 276.34414768 C-152.40622151 277.77745515 -152.41042691 279.21077695 -152.42044067 280.64404964 C-152.50879018 294.09678936 -150.79501254 307.1734745 -145.861866 319.76865101 C-145.55998367 320.55779896 -145.25810135 321.34694691 -144.94707108 322.16000843 C-131.46819188 356.59144427 -105.60227109 384.95071246 -71.471241 399.89365101 C-53.03290943 407.30266095 -36.55381484 410.41288658 -16.62968826 410.42978382 C-15.20093028 410.43442288 -13.77217351 410.43944896 -12.34341812 410.44482899 C-8.48748604 410.45785382 -4.6315713 410.46437886 -0.7756207 410.46883965 C1.643759 410.47178762 4.06313415 410.47589561 6.48251152 410.48034382 C14.082027 410.49399514 21.68153185 410.50367228 29.28105873 410.50754571 C37.99758494 410.51201516 46.71395346 410.52952119 55.43043178 410.5585463 C62.20455051 410.58030543 68.97862535 410.59025757 75.75277859 410.59158683 C79.7813874 410.59262511 83.80984755 410.59832039 87.83841896 410.61640644 C117.64331952 410.78815657 117.64331952 410.78815657 146.575634 404.14365101 C147.441884 403.84507191 148.308134 403.54649281 149.200634 403.23886585 C166.31417912 397.1067213 181.80798375 387.47841622 195.02485275 375.01865101 C196.950634 373.26865101 196.950634 373.26865101 198.950634 372.26865101 C198.950634 371.60865101 198.950634 370.94865101 198.950634 370.26865101 C199.610634 370.26865101 200.270634 370.26865101 200.950634 370.26865101 C214.94774297 355.25515446 224.5993472 338.25442906 231.950634 319.26865101 C232.21440842 318.6101012 232.47818283 317.9515514 232.74995041 317.27304554 C237.44970009 304.56631491 238.40172298 290.90072446 238.32294846 277.48422718 C238.32538604 275.9938173 238.32911461 274.50340908 238.33401108 273.01300526 C238.3432877 269.02357377 238.33411039 265.03439332 238.32067895 261.04498172 C238.30922608 256.83994161 238.31348223 252.63491138 238.31542587 248.42986012 C238.31630405 241.37876836 238.30532499 234.32777363 238.28681564 227.27670765 C238.26561422 219.15418752 238.26214979 211.03180886 238.2683776 202.90926665 C238.27409274 195.04918236 238.26840298 187.18914728 238.25720406 179.32907009 C238.25259065 176.00363017 238.25166989 172.67822066 238.2537899 169.35277843 C238.25568838 165.43325308 238.24745052 161.51386958 238.23172951 157.59437656 C238.22752716 156.16584517 238.22660839 154.73729927 238.22941971 153.30876446 C238.24883848 141.66645742 236.90102897 130.72653154 233.763134 119.51865101 C233.55100266 118.76060169 233.33887131 118.00255238 233.12031174 117.22153187 C229.61827253 105.22576878 224.1960404 94.06656976 217.950634 83.26865101 C217.290634 83.26865101 216.630634 83.26865101 215.950634 83.26865101 C215.6928215 82.55322132 215.435009 81.83779163 215.169384 81.10068226 C213.87678635 78.0970499 212.32286311 75.63359729 210.450634 72.95615101 C209.8421965 72.0731432 209.233759 71.19013538 208.606884 70.28036976 C208.0603215 69.61650257 207.513759 68.95263538 206.950634 68.26865101 C206.290634 68.26865101 205.630634 68.26865101 204.950634 68.26865101 C204.950634 67.60865101 204.950634 66.94865101 204.950634 66.26865101 C204.290634 66.26865101 203.630634 66.26865101 202.950634 66.26865101 C202.723759 65.71177601 202.496884 65.15490101 202.263134 64.58115101 C200.57513364 61.60705513 198.48386884 59.54856236 195.950634 57.26865101 C195.290634 57.26865101 194.630634 57.26865101 193.950634 57.26865101 C193.950634 56.60865101 193.950634 55.94865101 193.950634 55.26865101 C192.00687446 53.45236325 192.00687446 53.45236325 189.575634 51.64365101 C188.76352463 51.01201038 187.95141525 50.38036976 187.1146965 49.72958851 C185.10953521 48.08214293 185.10953521 48.08214293 182.950634 48.26865101 C182.950634 47.60865101 182.950634 46.94865101 182.950634 46.26865101 C153.97154147 24.57335193 120.47622706 20.77861796 85.5018568 20.83274293 C82.36408531 20.83587729 79.22635707 20.82969579 76.08859181 20.82370418 C68.66903265 20.80975163 61.24958884 20.81114112 53.83002853 20.82260609 C46.24609093 20.83406812 38.66250779 20.82002257 31.07861686 20.79320961 C24.50295693 20.77085556 17.92740663 20.76445928 11.35171151 20.77028602 C7.45275253 20.77361147 3.55402016 20.77154304 -0.34490585 20.754035 C-31.20998756 20.62873507 -57.7449629 24.46449631 -85.049366 39.26865101 Z " fill="#6EA634" transform="translate(207.04936599731445,30.731348991394043)"/>
<path d="M0 0 C3.71406235 1.45332874 4.25394816 2.50163395 5.875 6.125 C6.29033786 9.16396503 6.25436813 12.16674744 6.21557617 15.22973633 C6.21623329 16.59145462 6.21623329 16.59145462 6.21690369 17.98068237 C6.21481829 20.97301954 6.19149879 23.96479229 6.16796875 26.95703125 C6.16237192 29.03496494 6.15810223 31.1129026 6.15510559 33.19084167 C6.14366375 38.65386935 6.11420206 44.11665689 6.08099365 49.57958984 C6.05027865 55.15654248 6.03659718 60.733534 6.02148438 66.31054688 C5.98933189 77.24880329 5.93814335 88.18688166 5.875 99.125 C6.51757751 99.12055878 7.16015503 99.11611755 7.82220459 99.11154175 C14.50547056 99.06732131 21.18869502 99.03713888 27.87207031 99.01513672 C30.36687915 99.00507439 32.86167618 98.99142321 35.35644531 98.97412109 C38.94078484 98.94988332 42.52496853 98.93851918 46.109375 98.9296875 C47.22616638 98.91936493 48.34295776 98.90904236 49.49359131 98.89840698 C50.53436829 98.89825592 51.57514526 98.89810486 52.64746094 98.89794922 C53.56235291 98.893508 54.47724487 98.88906677 55.41986084 98.88449097 C58.05147521 99.14228777 59.65620631 99.70508595 61.875 101.125 C63.29304405 103.9610881 63.13417643 105.9729572 62.875 109.125 C61.546875 111.88671875 61.546875 111.88671875 59.625 114.8125 C59.26929932 115.36446045 58.91359863 115.9164209 58.54711914 116.48510742 C57.75735839 117.71048287 56.96223754 118.93241555 56.16259766 120.15136719 C54.33716228 122.94939896 52.56060804 125.77740829 50.78100586 128.60473633 C49.26941755 131.0059377 47.75206001 133.40342947 46.234375 135.80078125 C41.86627332 142.71258285 37.54020212 149.65065974 33.21459961 156.58911133 C30.23042091 161.37215083 27.23042609 166.14361871 24.1953125 170.89453125 C20.87976406 176.09107389 17.71653003 181.36493263 14.57421875 186.66796875 C14.01347656 187.47878906 13.45273437 188.28960937 12.875 189.125 C12.215 189.125 11.555 189.125 10.875 189.125 C10.76341553 189.69379883 10.65183105 190.26259766 10.53686523 190.84863281 C9.79079144 193.41462028 8.70652105 195.28520799 7.28515625 197.546875 C6.75301514 198.39958984 6.22087402 199.25230469 5.67260742 200.13085938 C5.10002197 201.03642578 4.52743652 201.94199219 3.9375 202.875 C3.35137939 203.81150391 2.76525879 204.74800781 2.16137695 205.71289062 C0.40373085 208.51976703 -1.36046839 211.32244894 -3.125 214.125 C-4.48795302 216.30172416 -5.84876259 218.4797716 -7.20898438 220.65820312 C-8.02185281 221.95956802 -8.83564111 223.26035884 -9.65039062 224.56054688 C-11.58646413 227.65124741 -13.51151738 230.74790395 -15.4140625 233.859375 C-15.77717529 234.45298828 -16.14028809 235.04660156 -16.5144043 235.65820312 C-17.48943166 237.25531293 -18.46162804 238.85415009 -19.43359375 240.453125 C-23.53546898 246.93276162 -23.53546898 246.93276162 -27 248.0625 C-30.71821727 248.13686435 -32.24476802 247.42918559 -35.125 245.125 C-36.03643172 242.39070484 -36.24881595 240.81578671 -36.24525452 238.0058136 C-36.24662918 237.16868835 -36.24800385 236.33156311 -36.24942017 235.46907043 C-36.24402725 234.09666451 -36.24402725 234.09666451 -36.23852539 232.6965332 C-36.23867142 231.73049164 -36.23881744 230.76445007 -36.2389679 229.76913452 C-36.23827041 226.57132737 -36.23048562 223.37357824 -36.22265625 220.17578125 C-36.22079149 217.9604648 -36.21936786 215.74514794 -36.21836853 213.52983093 C-36.21454793 207.69533146 -36.20472151 201.86085683 -36.19366455 196.02636719 C-36.18344063 190.07422217 -36.1788688 184.12207314 -36.17382812 178.16992188 C-36.16309886 166.48827033 -36.14602789 154.80663723 -36.125 143.125 C-36.9794445 143.11286972 -36.9794445 143.11286972 -37.85115051 143.10049438 C-43.77217188 143.0145333 -49.69285519 142.91503361 -55.61352539 142.80761719 C-57.82407968 142.76929983 -60.03469692 142.73445186 -62.24536133 142.703125 C-65.42031371 142.65753448 -68.59483172 142.59952997 -71.76953125 142.5390625 C-72.76024124 142.52751129 -73.75095123 142.51596008 -74.77168274 142.50405884 C-75.69241074 142.48418915 -76.61313873 142.46431946 -77.56176758 142.44384766 C-78.3722908 142.43052399 -79.18281403 142.41720032 -80.01789856 142.4034729 C-82.125 142.125 -82.125 142.125 -85.125 140.125 C-85.8390335 134.48825481 -84.51581324 131.22401962 -81.625 126.4375 C-81.08685669 125.53511597 -81.08685669 125.53511597 -80.5378418 124.61450195 C-77.55870665 119.67525564 -74.36863035 114.87634061 -71.08203125 110.13671875 C-69.03123836 106.98070814 -67.22943992 103.74620334 -65.42163086 100.44750977 C-63.39229275 96.8125835 -61.19408218 93.2870291 -59 89.75 C-55.13239287 83.47014614 -51.36280692 77.1442365 -47.6875 70.75 C-39.32916409 56.21928553 -30.63695456 41.88848813 -21.86328125 27.60546875 C-19.94287571 24.47502059 -18.04876952 21.33017572 -16.16796875 18.17578125 C-15.67949463 17.36189941 -15.19102051 16.54801758 -14.68774414 15.70947266 C-13.7578995 14.1592579 -12.83352207 12.60574496 -11.91577148 11.04833984 C-5.39209424 0.21568377 -5.39209424 0.21568377 0 0 Z " fill="#F38318" transform="translate(256.125,116.875)"/>
<path d="M0 0 C0.58203125 1.890625 0.58203125 1.890625 1 4 C-0.5 6 -0.5 6 -2 8 C-2.37937008 9.32097208 -2.70897286 10.65679782 -3 12 C-3.74058719 15.28061765 -4.50423907 17.60406951 -7 20 C-7.99 20 -8.98 20 -10 20 C-10.66 22.64 -11.32 25.28 -12 28 C-7.16562514 29.22628045 -2.38468353 29.20511227 2.5703125 29.28125 C3.94737869 29.30886414 3.94737869 29.30886414 5.3522644 29.33703613 C9.26939587 29.41549787 13.18669097 29.48354383 17.10400391 29.55224609 C19.96785968 29.60397108 22.83156874 29.66120376 25.6953125 29.71875 C26.5828421 29.73232544 27.4703717 29.74590088 28.38479614 29.7598877 C29.20930267 29.77660522 30.0338092 29.79332275 30.88330078 29.81054688 C31.60768341 29.82307495 32.33206604 29.83560303 33.07839966 29.84851074 C35 30 35 30 38 31 C39.02299749 33.70934264 39.12106105 36.27626175 39.10679626 39.15005493 C39.10452278 40.37822685 39.10452278 40.37822685 39.10220337 41.63121033 C39.09209732 42.96545799 39.09209732 42.96545799 39.08178711 44.32666016 C39.07872055 45.27012802 39.07565399 46.21359589 39.07249451 47.18565369 C39.06534522 49.23237583 39.05595822 51.27909111 39.04459953 53.32579422 C39.02722517 56.56114405 39.01691582 59.79644462 39.00868225 63.03182983 C38.98420833 72.22992614 38.94853882 81.42795579 38.90405273 90.62597656 C38.87733586 96.2520949 38.86025119 101.87817511 38.84918404 107.50434494 C38.84295905 109.65184315 38.832935 111.79933372 38.81910515 113.94679642 C38.79998193 116.94195714 38.79300621 119.93691556 38.78881836 122.93212891 C38.78005676 123.82567581 38.77129517 124.71922272 38.76226807 125.6398468 C38.54236068 130.30125538 38.54236068 130.30125538 41 134 C43.02077346 134.05901922 43.02077346 134.05901922 45 133 C47.40389944 129.79480075 48.43624605 126.94627764 49 123 C49.61875 122.9175 50.2375 122.835 50.875 122.75 C53.12387169 122.20052771 53.12387169 122.20052771 54.125 120.25 C55.10177725 117.73828708 55.20388813 115.93219648 55.125 113.25 C55.10695313 112.45078125 55.08890625 111.6515625 55.0703125 110.828125 C55.04710937 110.22484375 55.02390625 109.6215625 55 109 C56.98 109.99 56.98 109.99 59 111 C61.21460369 109.17054478 61.94372483 108.32961168 62.4375 105.4375 C62.623125 104.633125 62.80875 103.82875 63 103 C63.66 102.71125 64.32 102.4225 65 102.125 C65.66 101.75375 66.32 101.3825 67 101 C67.37400786 98.67284 67.70764733 96.33882138 68 94 C68.99 93.34 69.98 92.68 71 92 C71.28875 91.4225 71.5775 90.845 71.875 90.25 C73.48674991 87.02650018 75.57284568 84.66986975 78 82 C78.66 82 79.32 82 80 82 C80 79.03 80 76.06 80 73 C84 71 84 71 86 71 C86.08636719 70.16855469 86.17273438 69.33710938 86.26171875 68.48046875 C86.40222656 67.39378906 86.54273438 66.30710937 86.6875 65.1875 C86.81511719 64.10855469 86.94273437 63.02960938 87.07421875 61.91796875 C88 59 88 59 90.39453125 57.11328125 C93 56 93 56 96 56 C96.04898438 55.37351562 96.09796875 54.74703125 96.1484375 54.1015625 C96.26058594 52.87566406 96.26058594 52.87566406 96.375 51.625 C96.44460938 50.81289063 96.51421875 50.00078125 96.5859375 49.1640625 C97 47 97 47 99 45 C99.99 45 100.98 45 102 45 C102.33 43.68 102.66 42.36 103 41 C104.485 41.495 104.485 41.495 106 42 C104.34424712 46.89987335 101.5872112 50.91279364 98.75 55.1875 C97.75396939 56.70621943 96.7591704 58.22574734 95.765625 59.74609375 C95.28802734 60.47683105 94.81042969 61.20756836 94.31835938 61.96044922 C91.19637965 66.79026749 88.25423207 71.73470331 85.46875 76.765625 C84.9840625 77.50296875 84.499375 78.2403125 84 79 C83.34 79 82.68 79 82 79 C81.88841553 79.56879883 81.77683105 80.13759766 81.66186523 80.72363281 C80.91579144 83.28962028 79.83152105 85.16020799 78.41015625 87.421875 C77.87801514 88.27458984 77.34587402 89.12730469 76.79760742 90.00585938 C76.22502197 90.91142578 75.65243652 91.81699219 75.0625 92.75 C74.47637939 93.68650391 73.89025879 94.62300781 73.28637695 95.58789062 C71.52873085 98.39476703 69.76453161 101.19744894 68 104 C66.63704698 106.17672416 65.27623741 108.3547716 63.91601562 110.53320312 C63.10314719 111.83456802 62.28935889 113.13535884 61.47460938 114.43554688 C59.53853587 117.52624741 57.61348262 120.62290395 55.7109375 123.734375 C55.34782471 124.32798828 54.98471191 124.92160156 54.6105957 125.53320312 C53.63556834 127.13031293 52.66337196 128.72915009 51.69140625 130.328125 C47.58953102 136.80776162 47.58953102 136.80776162 44.125 137.9375 C40.40678273 138.01186435 38.88023198 137.30418559 36 135 C35.08856828 132.26570484 34.87618405 130.69078671 34.87974548 127.8808136 C34.87837082 127.04368835 34.87699615 126.20656311 34.87557983 125.34407043 C34.88097275 123.97166451 34.88097275 123.97166451 34.88647461 122.5715332 C34.88632858 121.60549164 34.88618256 120.63945007 34.8860321 119.64413452 C34.88672959 116.44632737 34.89451438 113.24857824 34.90234375 110.05078125 C34.90420851 107.8354648 34.90563214 105.62014794 34.90663147 103.40483093 C34.91045207 97.57033146 34.92027849 91.73585683 34.93133545 85.90136719 C34.94155937 79.94922217 34.9461312 73.99707314 34.95117188 68.04492188 C34.96190114 56.36327033 34.97897211 44.68163723 35 33 C34.43037033 32.99191315 33.86074066 32.98382629 33.27384949 32.97549438 C27.35282812 32.8895333 21.43214481 32.79003361 15.51147461 32.68261719 C13.30092032 32.64429983 11.09030308 32.60945186 8.87963867 32.578125 C5.70468629 32.53253448 2.53016828 32.47452997 -0.64453125 32.4140625 C-1.63524124 32.40251129 -2.62595123 32.39096008 -3.64668274 32.37905884 C-5.02777473 32.3492543 -5.02777473 32.3492543 -6.43676758 32.31884766 C-7.2472908 32.30552399 -8.05781403 32.29220032 -8.89289856 32.2784729 C-11 32 -11 32 -14 30 C-14.72456141 24.40857328 -13.273555 20.76921627 -10.375 16.125 C-10.01470703 15.52220215 -9.65441406 14.9194043 -9.28320312 14.29833984 C-6.34699997 9.43021895 -3.25526319 4.66094502 0 0 Z " fill="#B93123" transform="translate(185,227)"/>
<path d="M0 0 C0.66 0 1.32 0 2 0 C4.74185735 9.73293886 5.43274798 18.96503396 5.38818359 29.00463867 C5.39225925 30.56666936 5.39760666 32.12869715 5.40411377 33.6907196 C5.41767171 37.89303986 5.41253784 42.09513666 5.40297651 46.29746032 C5.39532368 50.71567193 5.40244064 55.13386579 5.40713501 59.55207825 C5.41257459 66.96501057 5.40544657 74.37785287 5.39111328 81.79077148 C5.37477212 90.34044536 5.38009314 98.88990473 5.3965925 107.43957347 C5.41023718 114.80725308 5.41211302 122.17486841 5.40427649 129.54255658 C5.39961866 133.93130686 5.39892314 138.31995651 5.40888596 142.70870018 C5.4175976 146.83340366 5.41145772 150.95783218 5.39420319 155.08250618 C5.39026142 156.58927836 5.39133243 158.09607398 5.39799118 159.60283661 C5.43096924 167.82791414 5.03799203 175.25384577 2 183 C1.34 182.67 0.68 182.34 0 182 C0.14137264 181.16799544 0.28274529 180.33599089 0.42840195 179.47877407 C1.85265402 170.46152292 2.28733644 161.73243375 2.25878906 152.60375977 C2.26150759 151.11866079 2.2650733 149.63356316 2.26940918 148.14846802 C2.27843393 144.15871333 2.2750302 140.16906346 2.26865101 136.17930722 C2.26353814 131.97565027 2.26829708 127.77200147 2.27142334 123.56834412 C2.27504813 116.51193657 2.27030355 109.45557107 2.26074219 102.39916992 C2.24986475 94.27848168 2.25338408 86.15789395 2.264395 78.03720814 C2.27351553 71.02612506 2.27472987 64.01507197 2.26951766 57.00398487 C2.26642347 52.83364432 2.26591738 48.66335078 2.27259064 44.49301338 C2.2784332 40.56860477 2.27424307 36.64432378 2.26280212 32.71992874 C2.26019184 31.29265618 2.26085708 29.86537258 2.26532745 28.43810463 C2.29279086 18.76669876 1.49365393 9.5372609 0 0 Z " fill="#354A1F" transform="translate(442,156)"/>
<path d="M0 0 C0.33 0 0.66 0 1 0 C1.00423194 0.77838132 1.00846388 1.55676264 1.01282406 2.35873127 C1.11629748 21.33126528 1.22495957 40.30376315 1.33933926 59.27623463 C1.39452917 68.45131516 1.4479871 77.62639959 1.49731445 86.80151367 C1.54033135 94.80202688 1.58665221 102.8025131 1.63687855 110.80298442 C1.66333922 115.03597847 1.68818745 119.26896765 1.70907402 123.50199318 C1.72882119 127.49349255 1.75301568 131.48494124 1.78049088 135.47639465 C1.78976655 136.93435421 1.79747475 138.3923248 1.80341911 139.85030174 C1.83745494 147.95488082 2.08794679 155.94330859 3 164 C-2.06911688 158.93088312 -1.2377619 151.35410895 -1.25994873 144.66540527 C-1.25446655 143.28198164 -1.24878362 141.89855879 -1.24291992 140.51513672 C-1.24399397 139.04440222 -1.24593446 137.57366813 -1.24867249 136.10293579 C-1.25350359 132.12376051 -1.24588737 128.14469805 -1.23571944 124.1655364 C-1.22691213 119.99586721 -1.22869689 115.82620126 -1.2290802 111.65652466 C-1.22814488 104.65755331 -1.21947784 97.65862543 -1.20581055 90.65966797 C-1.19007418 82.57132814 -1.18481295 74.48303584 -1.1855461 66.39468181 C-1.18622182 57.7753656 -1.17928054 49.15606768 -1.1700995 40.53675699 C-1.16796976 38.05586458 -1.16725854 35.57497512 -1.16686058 33.09408188 C-1.16585514 29.19527069 -1.15974208 25.29649931 -1.14969444 21.39770126 C-1.14677711 19.96784713 -1.14554252 18.53798841 -1.14612198 17.10813141 C-1.14661393 15.15499955 -1.14032978 13.20186949 -1.13371277 11.24874878 C-1.13203692 10.15629789 -1.13036108 9.06384701 -1.12863445 7.93829155 C-1.00798645 5.18242804 -0.62505993 2.68189481 0 0 Z " fill="#32491D" transform="translate(54,172)"/>
<path d="M0 0 C0.58203125 1.890625 0.58203125 1.890625 1 4 C-0.5 6 -0.5 6 -2 8 C-2.37937008 9.32097208 -2.70897286 10.65679782 -3 12 C-3.74058719 15.28061765 -4.50423907 17.60406951 -7 20 C-7.99 20 -8.98 20 -10 20 C-10.66 22.64 -11.32 25.28 -12 28 C-7.16562514 29.22628045 -2.38468353 29.20511227 2.5703125 29.28125 C3.94737869 29.30886414 3.94737869 29.30886414 5.3522644 29.33703613 C9.26939587 29.41549787 13.18669097 29.48354383 17.10400391 29.55224609 C19.96785968 29.60397108 22.83156874 29.66120376 25.6953125 29.71875 C26.5828421 29.73232544 27.4703717 29.74590088 28.38479614 29.7598877 C29.20930267 29.77660522 30.0338092 29.79332275 30.88330078 29.81054688 C31.60768341 29.82307495 32.33206604 29.83560303 33.07839966 29.84851074 C35 30 35 30 38 31 C39.29156365 34.13362984 38.95466142 36.93841469 38.5625 40.25 C38.46066406 41.14203125 38.35882813 42.0340625 38.25390625 42.953125 C38.17011719 43.62859375 38.08632812 44.3040625 38 45 C37.67 45 37.34 45 37 45 C36.67 73.71 36.34 102.42 36 132 C35.67 132 35.34 132 35 132 C35 99.33 35 66.66 35 33 C19.82 32.67 4.64 32.34 -11 32 C-11.99 31.34 -12.98 30.68 -14 30 C-14.72456141 24.40857328 -13.273555 20.76921627 -10.375 16.125 C-10.01470703 15.52220215 -9.65441406 14.9194043 -9.28320312 14.29833984 C-6.34699997 9.43021895 -3.25526319 4.66094502 0 0 Z " fill="#8F360F" transform="translate(185,227)"/>
<path d="M0 0 C3 0.9375 3 0.9375 4.66621399 2.92704773 C6.49177717 7.04747693 6.39702988 10.58468622 6.34057617 15.04223633 C6.34101425 15.95004852 6.34145233 16.85786072 6.34190369 17.79318237 C6.33981829 20.78551954 6.31649879 23.77729229 6.29296875 26.76953125 C6.28737192 28.84746494 6.28310223 30.9254026 6.28010559 33.00334167 C6.26866375 38.46636935 6.23920206 43.92915689 6.20599365 49.39208984 C6.17527865 54.96904248 6.16159718 60.546034 6.14648438 66.12304688 C6.11433189 77.06130329 6.06314335 87.99938166 6 98.9375 C5.34 98.9375 4.68 98.9375 4 98.9375 C4 67.5875 4 36.2375 4 3.9375 C0.7 3.9375 -2.6 3.9375 -6 3.9375 C-6 3.2775 -6 2.6175 -6 1.9375 C-3 -0.0625 -3 -0.0625 0 0 Z " fill="#684B17" transform="translate(256,117.0625)"/>
<path d="M0 0 C0.33 0 0.66 0 1 0 C2.07084437 9.77175625 2.17499804 19.50288712 2.22979546 29.31967545 C2.24640229 32.18606818 2.26963553 35.05234 2.29469299 37.91867065 C2.36500042 46.0583484 2.42593575 54.19806812 2.47680664 62.33789062 C2.50851392 67.33791067 2.5497375 72.33777714 2.59700203 77.33767319 C2.61303576 79.23951357 2.62535097 81.14138902 2.63390923 83.04327774 C2.6460029 85.68802931 2.67011746 88.33241452 2.69702148 90.97705078 C2.69761063 91.76452194 2.69819977 92.5519931 2.69880676 93.36332703 C2.60357617 97.64416869 2.60357617 97.64416869 5 101 C7.58354218 101.16687448 7.58354218 101.16687448 10 101 C10 101.66 10 102.32 10 103 C3.375 103.125 3.375 103.125 0 102 C0 68.34 0 34.68 0 0 Z " fill="#BA4627" transform="translate(221,260)"/>
<path d="M0 0 C0.66 0.33 1.32 0.66 2 1 C2 29.71 2 58.42 2 88 C1.67 88 1.34 88 1 88 C0.67 61.27 0.34 34.54 0 7 C-1.32 7.33 -2.64 7.66 -4 8 C-4.66 7.34 -5.32 6.68 -6 6 C-9.00109686 7.86774088 -9.00109686 7.86774088 -10.625 10.875 C-10.74875 11.57625 -10.8725 12.2775 -11 13 C-11.6469365 14.6744239 -12.30959426 16.34302621 -13 18 C-13.66 18 -14.32 18 -15 18 C-12.65225 4.96330694 -12.65225 4.96330694 -9.75 1.6875 C-6.25604564 -0.45651745 -4.03142709 -0.45638797 0 0 Z " fill="#E8AF20" transform="translate(258,120)"/>
<path d="M0 0 C53.79 0 107.58 0 163 0 C158.66641848 2.88905435 155.7826865 3.11894986 150.6789093 3.08229065 C150.03522831 3.07906152 149.39154731 3.07583239 148.72836083 3.07250541 C146.56795192 3.06042565 144.4076698 3.04105383 142.24731445 3.02172852 C140.70009639 3.01158622 139.15287534 3.00189249 137.60565186 2.99261475 C133.40137693 2.96612883 129.1971716 2.9333503 124.99295068 2.89946485 C120.60072775 2.86512671 116.20846752 2.83654398 111.81620789 2.80735779 C103.49706453 2.75119963 95.1779679 2.6898452 86.85887545 2.62663645 C77.38863864 2.55493333 67.91836442 2.48900389 58.44808257 2.42356598 C38.96533965 2.28881412 19.48265574 2.14679028 0 2 C0 1.34 0 0.68 0 0 Z " fill="#3F5E20" transform="translate(170,440)"/>
<path d="M0 0 C7.33232678 -0.05067793 14.66460844 -0.08572428 21.99707031 -0.10986328 C24.49187915 -0.11992561 26.98667618 -0.13357679 29.48144531 -0.15087891 C33.06578484 -0.17511668 36.64996853 -0.18648082 40.234375 -0.1953125 C41.35116638 -0.20563507 42.46795776 -0.21595764 43.61859131 -0.22659302 C44.65936829 -0.22674408 45.70014526 -0.22689514 46.77246094 -0.22705078 C47.68735291 -0.231492 48.60224487 -0.23593323 49.54486084 -0.24050903 C52.17647521 0.01728777 53.78120631 0.58008595 56 2 C57.42662219 4.85324437 57.31033868 6.83454549 57 10 C55 12.875 55 12.875 53 15 C52.505 12.03 52.505 12.03 52 9 C52.99 9 53.98 9 55 9 C54.34 6.69 53.68 4.38 53 2 C35.51 2 18.02 2 0 2 C0 1.34 0 0.68 0 0 Z " fill="#804C14" transform="translate(262,216)"/>
<path d="M0 0 C0.62109375 1.81640625 0.62109375 1.81640625 1 4 C-0.32346506 6.0065438 -1.65729179 8.00628175 -3 10 C-3.16713569 12.62531524 -3.16713569 12.62531524 -3 15 C-3.99 16.485 -3.99 16.485 -5 18 C-5.16713569 20.62531524 -5.16713569 20.62531524 -5 23 C-9 25 -9 25 -10.9375 25.8125 C-13.76289137 27.43924048 -15.76913245 29.64519537 -18 32 C-16.42028725 25.99709154 -13.2625225 21.2041857 -10 16 C-9.12733535 14.59912575 -8.2549601 13.19807121 -7.3828125 11.796875 C-4.92928103 7.85991404 -2.46649815 3.92884883 0 0 Z " fill="#DAA911" transform="translate(221,167)"/>
<path d="M0 0 C1.32 0.33 2.64 0.66 4 1 C2.30668653 6.02984238 -0.55306261 10.21748942 -3.4375 14.625 C-3.92798828 15.388125 -4.41847656 16.15125 -4.92382812 16.9375 C-7.08569672 20.26345168 -9.10242259 23.26607666 -12 26 C-12.33 25.34 -12.66 24.68 -13 24 C-13.66 24 -14.32 24 -15 24 C-14.8125 21.1875 -14.8125 21.1875 -14 18 C-11.11373339 15.72136847 -9.6952982 15 -6 15 C-5.95101563 14.37351562 -5.90203125 13.74703125 -5.8515625 13.1015625 C-5.77679688 12.28429687 -5.70203125 11.46703125 -5.625 10.625 C-5.52058594 9.40683594 -5.52058594 9.40683594 -5.4140625 8.1640625 C-5 6 -5 6 -3 4 C-2.01 4 -1.02 4 0 4 C0 2.68 0 1.36 0 0 Z " fill="#BC471B" transform="translate(287,268)"/>
<path d="M0 0 C0.58203125 1.890625 0.58203125 1.890625 1 4 C-0.5 6 -0.5 6 -2 8 C-2.37937008 9.32097208 -2.70897286 10.65679782 -3 12 C-3.74058719 15.28061765 -4.50423907 17.60406951 -7 20 C-7.99 20 -8.98 20 -10 20 C-10.66 22.64 -11.32 25.28 -12 28 C-10.35 28.33 -8.7 28.66 -7 29 C-8.8125 30.0625 -8.8125 30.0625 -11 31 C-11.99 30.67 -12.98 30.34 -14 30 C-14.41621162 24.35961494 -13.31061411 20.82859432 -10.375 16.125 C-10.01470703 15.52220215 -9.65441406 14.9194043 -9.28320312 14.29833984 C-6.34699997 9.43021895 -3.25526319 4.66094502 0 0 Z " fill="#BF631C" transform="translate(185,227)"/>
<path d="M0 0 C0 4.21574382 -2.16044216 6.9575057 -4.3125 10.4375 C-4.71662109 11.10587891 -5.12074219 11.77425781 -5.53710938 12.46289062 C-11.20594864 21.76347406 -11.20594864 21.76347406 -14.9375 22.875 C-18.07142606 23.00291535 -19.41704268 22.68885671 -22 21 C-18.93109813 19.46554906 -16.29905734 20.45015711 -13 21 C-13.33 20.01 -13.66 19.02 -14 18 C-13.02616054 16.31791365 -12.02304948 14.65261839 -11 13 C-10.29329272 10.30745009 -10.29329272 10.30745009 -10 8 C-9.1028125 7.938125 -9.1028125 7.938125 -8.1875 7.875 C-4.91836183 6.56734473 -4.47589324 4.08012502 -3 1 C-2.01 0.67 -1.02 0.34 0 0 Z " fill="#A22620" transform="translate(244,342)"/>
<path d="M0 0 C0.33 0 0.66 0 1 0 C1.50249203 15.03753927 -0.14348908 28.67157063 -5 43 C-5.33 43 -5.66 43 -6 43 C-6.33 39.37 -6.66 35.74 -7 32 C-6.34 31.67 -5.68 31.34 -5 31 C-2.53143762 27.41660299 -2.60149913 23.5164777 -2.4375 19.3125 C-2.12133072 12.12133072 -2.12133072 12.12133072 -1 11 C-0.76636119 9.15108054 -0.58696365 7.29511969 -0.4375 5.4375 C-0.35371094 4.42558594 -0.26992188 3.41367187 -0.18359375 2.37109375 C-0.12300781 1.58863281 -0.06242187 0.80617188 0 0 Z " fill="#567C2E" transform="translate(465,312)"/>
<path d="M0 0 C2.97 0 5.94 0 9 0 C9 0.99 9 1.98 9 3 C6.58655492 4.71880037 4.2444852 6.2152964 1.6875 7.6875 C0.99720703 8.10322266 0.30691406 8.51894531 -0.40429688 8.94726562 C-5.5924415 12 -5.5924415 12 -9 12 C-9 11.34 -9 10.68 -9 10 C-7.66666667 9 -6.33333333 8 -5 7 C-3.0635549 4.73159288 -1.33455087 2.66910174 0 0 Z " fill="#5F8D31" transform="translate(388,434)"/>
<path d="M0 0 C0.66 0.66 1.32 1.32 2 2 C0.35 2.66 -1.3 3.32 -3 4 C-3 4.66 -3 5.32 -3 6 C-4.2848951 7.38007251 -5.63015802 8.70420353 -7 10 C-8.2684375 11.3303125 -8.2684375 11.3303125 -9.5625 12.6875 C-12 15 -12 15 -15 16 C-15.66 16.66 -16.32 17.32 -17 18 C-17.66 17.67 -18.32 17.34 -19 17 C-19 16.34 -19 15.68 -19 15 C-18.34 15 -17.68 15 -17 15 C-17 14.34 -17 13.68 -17 13 C-16.34 13 -15.68 13 -15 13 C-15 12.34 -15 11.68 -15 11 C-14.34 11 -13.68 11 -13 11 C-13 10.34 -13 9.68 -13 9 C-12.34 9 -11.68 9 -11 9 C-11 8.34 -11 7.68 -11 7 C-7.50227094 3.74629855 -4.60139641 1.48868707 0 0 Z " fill="#6E9B37" transform="translate(93,65)"/>
<path d="M0 0 C1.60517097 0.08733576 3.20921662 0.19552224 4.8125 0.3125 C6.15248047 0.39951172 6.15248047 0.39951172 7.51953125 0.48828125 C10.37746878 1.07787151 11.03944292 1.95230705 13 4 C16.62535976 4.2503577 16.62535976 4.2503577 20 4 C20.103125 4.763125 20.20625 5.52625 20.3125 6.3125 C21.05790616 9.22636046 21.84458939 10.02950397 24 12 C18.2117162 10.30343406 12.89232086 8.1088301 7.5 5.4375 C6.87657715 5.13255615 6.2531543 4.8276123 5.61083984 4.51342773 C1.12379358 2.24758716 1.12379358 2.24758716 0 0 Z " fill="#5E8734" transform="translate(108,439)"/>
<path d="M0 0 C1.86710385 3.7342077 -0.60514423 7.99503557 -1.828125 11.78125 C-3.18924467 15.51979202 -4.31645184 18.07249291 -7 21 C-9.75 21.875 -9.75 21.875 -12 22 C-10.3050672 17.29494063 -7.90289284 13.08099027 -5.4375 8.75 C-5.02564453 8.0178125 -4.61378906 7.285625 -4.18945312 6.53125 C-1.13862607 1.13862607 -1.13862607 1.13862607 0 0 Z " fill="#CE9A1A" transform="translate(245,127)"/>
<path d="M0 0 C0.33 0 0.66 0 1 0 C1.14499601 4.60400882 1.28727873 9.20809141 1.42724609 13.81225586 C1.47503646 15.37249919 1.52351753 16.93272155 1.57275391 18.49291992 C1.64415528 20.75954923 1.71320043 23.02623648 1.78125 25.29296875 C1.80421143 26.03352509 1.82717285 26.77408142 1.85083008 27.53707886 C2.01354692 33.22533597 1.97645221 38.89794207 1.82226562 44.5871582 C1.74950414 47.18500421 1.74950414 47.18500421 4 49 C6.58354218 49.16687448 6.58354218 49.16687448 9 49 C9 49.66 9 50.32 9 51 C2.25 51.125 2.25 51.125 0 50 C0 33.5 0 17 0 0 Z " fill="#D93B30" transform="translate(222,312)"/>
<path d="M0 0 C0.66 0.33 1.32 0.66 2 1 C1.731875 1.66 1.46375 2.32 1.1875 3 C0.52454509 4.67483346 -0.11480359 6.36139356 -0.66015625 8.078125 C-0.89605469 8.79484375 -1.13195312 9.5115625 -1.375 10.25 C-1.58898437 10.93578125 -1.80296875 11.6215625 -2.0234375 12.328125 C-3 14 -3 14 -5 14.59375 C-5.66 14.7278125 -6.32 14.861875 -7 15 C-8.79145521 17.48047644 -9.93386409 19.82225973 -11 22.6875 C-12 25 -12 25 -15 27 C-14.45939743 23.10766151 -13.37781856 21.07134898 -11 18 C-10.29485154 15.85266073 -10.29485154 15.85266073 -10 14 C-9.34 14 -8.68 14 -8 14 C-8 13.01 -8 12.02 -8 11 C-6.68 11 -5.36 11 -4 11 C-3.8453125 10.2265625 -3.8453125 10.2265625 -3.6875 9.4375 C-2.75736134 6.13973565 -1.38604488 3.13366668 0 0 Z " fill="#EFC118" transform="translate(232,153)"/>
<path d="M0 0 C-3.7770183 2.5180122 -6.22636442 3.12858638 -10.6550293 3.02172852 C-11.59577805 3.00163223 -12.53652679 2.98153595 -13.50578308 2.96083069 C-15.02465874 2.92027809 -15.02465874 2.92027809 -16.57421875 2.87890625 C-17.61318802 2.85529526 -18.65215729 2.83168427 -19.72261047 2.80735779 C-23.04437933 2.73072211 -26.36591502 2.64669703 -29.6875 2.5625 C-31.93813959 2.50927924 -34.1887906 2.45653884 -36.43945312 2.40429688 C-41.95978001 2.27510707 -47.4799334 2.13984824 -53 2 C-53 1.67 -53 1.34 -53 1 C-46.89854939 0.85624755 -40.79706858 0.71387927 -34.69555664 0.57275391 C-32.62295678 0.52462527 -30.55036543 0.47612852 -28.4777832 0.42724609 C-25.48651292 0.35676173 -22.4952138 0.28763244 -19.50390625 0.21875 C-18.58791153 0.19687622 -17.67191681 0.17500244 -16.72816467 0.15246582 C-11.15041266 0.02560083 -5.57921037 -0.01984601 0 0 Z " fill="#455F2B" transform="translate(333,440)"/>
<path d="M0 0 C1.32 0.33 2.64 0.66 4 1 C2.5449678 5.12259123 0.72797398 8.57054699 -2 12 C-4.75 12.875 -4.75 12.875 -7 13 C-7 11.35 -7 9.7 -7 8 C-3.25 6 -3.25 6 -1 6 C-0.67 4.02 -0.34 2.04 0 0 Z " fill="#A73A1B" transform="translate(272,292)"/>
<path d="M0 0 C0.33 0 0.66 0 1 0 C1.57446809 18.34042553 1.57446809 18.34042553 -2 27 C-2.66 26.67 -3.32 26.34 -4 26 C-3.52451163 22.41616855 -3.04396997 18.83303236 -2.5625 15.25 C-2.42779297 14.23421875 -2.29308594 13.2184375 -2.15429688 12.171875 C-2.02216797 11.1921875 -1.89003906 10.2125 -1.75390625 9.203125 C-1.63345947 8.30239258 -1.5130127 7.40166016 -1.38891602 6.47363281 C-1.04205758 4.26749992 -0.58252295 2.15423582 0 0 Z " fill="#68903F" transform="translate(446,312)"/>
<path d="M0 0 C1.11346788 2.80033839 1.03510273 3.90143703 0.00390625 6.796875 C-0.47175781 7.77140625 -0.94742188 8.7459375 -1.4375 9.75 C-2.14712891 11.22726563 -2.14712891 11.22726563 -2.87109375 12.734375 C-3.24363281 13.48203125 -3.61617187 14.2296875 -4 15 C-5.32 15 -6.64 15 -8 15 C-8 15.99 -8 16.98 -8 18 C-8.66 18 -9.32 18 -10 18 C-8.5216233 13.98832453 -6.60821705 10.42979591 -4.4375 6.75 C-3.81746094 5.69296875 -3.19742188 4.6359375 -2.55859375 3.546875 C-1 1 -1 1 0 0 Z " fill="#A6881A" transform="translate(232,149)"/>
<path d="M0 0 C3.58738 5.38107 3.32394442 10.86117921 3.71875 17.19921875 C3.69181513 19.9027875 3.69181513 19.9027875 5 21 C5.07179964 22.51928038 5.08392007 24.04167482 5.0625 25.5625 C5.05347656 26.38878906 5.04445313 27.21507812 5.03515625 28.06640625 C5.02355469 28.70449219 5.01195312 29.34257812 5 30 C-0.58154357 24.41845643 -0.0519504 11.92771872 -0.0625 4.4375 C-0.04673956 2.95827058 -0.02779013 1.47905232 0 0 Z " fill="#4B6D2A" transform="translate(34,317)"/>
<path d="M0 0 C0.99 0.33 1.98 0.66 3 1 C3 1.99 3 2.98 3 4 C3.66 4.33 4.32 4.66 5 5 C4.67 5.99 4.34 6.98 4 8 C4.66 8 5.32 8 6 8 C6 8.66 6 9.32 6 10 C6.66 10 7.32 10 8 10 C8.144375 11.093125 8.28875 12.18625 8.4375 13.3125 C8.88288104 16.93122987 8.88288104 16.93122987 10 20 C9.0625 22.1875 9.0625 22.1875 8 24 C5.33333333 16 2.66666667 8 0 0 Z " fill="#5F8D33" transform="translate(433,130)"/>
<path d="M0 0 C0.12375 0.61875 0.2475 1.2375 0.375 1.875 C0.87197356 4.19120832 0.87197356 4.19120832 3 6 C2.34 7.65 1.68 9.3 1 11 C0.34 10.67 -0.32 10.34 -1 10 C-1.16435547 11.03060547 -1.16435547 11.03060547 -1.33203125 12.08203125 C-1.49058594 12.98308594 -1.64914062 13.88414062 -1.8125 14.8125 C-1.96332031 15.70582031 -2.11414063 16.59914063 -2.26953125 17.51953125 C-3.06046424 20.20531974 -3.78699962 21.32213322 -6 23 C-6.66 23 -7.32 23 -8 23 C-5.47191206 15.28267891 -2.74972528 7.64054098 0 0 Z " fill="#4F732A" transform="translate(441,341)"/>
<path d="M0 0 C2.5 0.125 2.5 0.125 3.5 1.125 C3.54080783 3.12458364 3.54254356 5.12545254 3.5 7.125 C1.1875 7.75 1.1875 7.75 -1.5 8.125 C-2.49 7.465 -3.48 6.805 -4.5 6.125 C-3.43143596 0.1715718 -3.43143596 0.1715718 0 0 Z " fill="#F5A80F" transform="translate(255.5,119.875)"/>
<path d="M0 0 C0.99 0.66 1.98 1.32 3 2 C1.37621488 6.72373854 -1.10993018 10.94181834 -4 15 C-4.33 15 -4.66 15 -5 15 C-5 13.02 -5 11.04 -5 9 C-4.34 9 -3.68 9 -3 9 C-3.33 7.02 -3.66 5.04 -4 3 C-3.34 2.67 -2.68 2.34 -2 2 C-1.34 2.33 -0.68 2.66 0 3 C0 2.01 0 1.02 0 0 Z " fill="#D5661B" transform="translate(296,254)"/>
<path d="M0 0 C1.32 0.33 2.64 0.66 4 1 C2.54997977 5.10839064 0.6020866 8.50344613 -2 12 C-2.66 12 -3.32 12 -4 12 C-4.625 9.125 -4.625 9.125 -5 6 C-4.34 5.34 -3.68 4.68 -3 4 C-2.01 4 -1.02 4 0 4 C0 2.68 0 1.36 0 0 Z " fill="#C2501A" transform="translate(287,268)"/>
<path d="M0 0 C0 3.10804508 -0.455955 4.3443293 -1.8125 7.0625 C-2.14894531 7.75472656 -2.48539063 8.44695312 -2.83203125 9.16015625 C-4 11 -4 11 -7 13 C-7.72382467 15.05925139 -7.72382467 15.05925139 -8 17 C-8.66 17 -9.32 17 -10 17 C-10 17.66 -10 18.32 -10 19 C-10.99 19.33 -11.98 19.66 -13 20 C-11.56874399 16.08551482 -9.72488708 12.70866662 -7.5 9.1875 C-6.8915625 8.21167969 -6.283125 7.23585938 -5.65625 6.23046875 C-5.1096875 5.49441406 -4.563125 4.75835937 -4 4 C-3.34 4 -2.68 4 -2 4 C-1.34 2.68 -0.68 1.36 0 0 Z " fill="#55772D" transform="translate(67,89)"/>
<path d="M0 0 C0.33 0.99 0.66 1.98 1 3 C0.01 3.99 -0.98 4.98 -2 6 C-1.67 6.66 -1.34 7.32 -1 8 C-1.28112064 10.00800456 -1.61067967 12.01014051 -2 14 C-3.175625 14.2165625 -3.175625 14.2165625 -4.375 14.4375 C-6.96421018 14.87798925 -6.96421018 14.87798925 -9 16 C-8.625 13.5625 -8.625 13.5625 -8 11 C-7.34 10.67 -6.68 10.34 -6 10 C-5.71125 9.2575 -5.4225 8.515 -5.125 7.75 C-3.86181712 4.66221961 -2.16095927 2.52111915 0 0 Z " fill="#F2AA18" transform="translate(208,193)"/>
<path d="M0 0 C0.66 0 1.32 0 2 0 C2.85695967 5.88400655 3.12539234 11.55909292 3.0625 17.5 C3.05798828 18.32242188 3.05347656 19.14484375 3.04882812 19.9921875 C3.03718489 21.99482396 3.01925556 23.99742227 3 26 C2.67 26 2.34 26 2 26 C0.6786742 17.2580141 -0.33165588 8.862582 0 0 Z " fill="#648732" transform="translate(463,158)"/>
<path d="M0 0 C0.99 0.33 1.98 0.66 3 1 C0.94235079 7.45353615 -1.42383482 13.7361263 -4 20 C-4.33 20 -4.66 20 -5 20 C-5.05399736 18.54207116 -5.09279177 17.08357288 -5.125 15.625 C-5.15980469 14.40683594 -5.15980469 14.40683594 -5.1953125 13.1640625 C-5 11 -5 11 -3 9 C-2.40165446 7.47943382 -1.86493344 5.93387912 -1.375 4.375 C-1.11460938 3.55773437 -0.85421875 2.74046875 -0.5859375 1.8984375 C-0.39257812 1.27195312 -0.19921875 0.64546875 0 0 Z " fill="#5E8433" transform="translate(66,125)"/>
<path d="M0 0 C-0.66 1.32 -1.32 2.64 -2 4 C-3.03125 3.79375 -4.0625 3.5875 -5.125 3.375 C-9.24238033 2.97654384 -11.16456342 3.66933833 -15 5 C-17.69349105 5.1710929 -20.29699712 5.093207 -23 5 C-19.57957616 3.05389678 -16.20800734 2.26380294 -12.375 1.4375 C-2.41086957 -0.72326087 -2.41086957 -0.72326087 0 0 Z " fill="#406224" transform="translate(356,435)"/>
<path d="M0 0 C0.66 0 1.32 0 2 0 C4.29967196 8.48688461 5.42781312 16.20606372 5 25 C4.34 24.67 3.68 24.34 3 24 C2.54482849 21.08749732 2.20142822 18.24325077 1.9375 15.3125 C1.78144985 13.70428064 1.62392681 12.09620343 1.46484375 10.48828125 C1.38991699 9.72209473 1.31499023 8.9559082 1.23779297 8.16650391 C0.93669472 5.42323301 0.49551307 2.71435922 0 0 Z " fill="#5B8332" transform="translate(442,156)"/>
<path d="M0 0 C0.99 0.33 1.98 0.66 3 1 C1.6118265 4.12857014 -0.01101878 6.28189174 -2.4375 8.6875 C-3.03433594 9.28949219 -3.63117188 9.89148438 -4.24609375 10.51171875 C-6 12 -6 12 -9 13 C-8.25 8.25 -8.25 8.25 -6 6 C-5.01 6 -4.02 6 -3 6 C-3 5.34 -3 4.68 -3 4 C-2.34 4 -1.68 4 -1 4 C-0.67 2.68 -0.34 1.36 0 0 Z " fill="#587E33" transform="translate(424,409)"/>
<path d="M0 0 C0.99 0 1.98 0 3 0 C1.51463956 4.02316219 -0.39876893 7.61292642 -2.5625 11.3125 C-3.18253906 12.38113281 -3.80257813 13.44976562 -4.44140625 14.55078125 C-5.21291016 15.76314453 -5.21291016 15.76314453 -6 17 C-6.33 17 -6.66 17 -7 17 C-7 14.36 -7 11.72 -7 9 C-5.68 8.67 -4.36 8.34 -3 8 C-2.67 6.35 -2.34 4.7 -2 3 C-1.34 3 -0.68 3 0 3 C0 2.01 0 1.02 0 0 Z " fill="#A75715" transform="translate(311,232)"/>
<path d="M0 0 C2.97 1.65 5.94 3.3 9 5 C9 5.66 9 6.32 9 7 C10.32 7.66 11.64 8.32 13 9 C10 10 10 10 7 10 C4.22060837 7.49176853 2.07895248 5.11842871 0 2 C0 1.34 0 0.68 0 0 Z M-1 4 C-0.34 4.66 0.32 5.32 1 6 C0.34 6 -0.32 6 -1 6 C-1 5.34 -1 4.68 -1 4 Z " fill="#5D8930" transform="translate(396,56)"/>
<path d="M0 0 C0.66 0 1.32 0 2 0 C2.33 0.99 2.66 1.98 3 3 C1.54634731 4.17249353 0.08692581 5.33783816 -1.375 6.5 C-2.18710937 7.1496875 -2.99921875 7.799375 -3.8359375 8.46875 C-6 10 -6 10 -8 10 C-8.33 9.01 -8.66 8.02 -9 7 C-7.68 6.67 -6.36 6.34 -5 6 C-5.33 4.68 -5.66 3.36 -6 2 C-4.35 2.33 -2.7 2.66 -1 3 C-0.67 2.01 -0.34 1.02 0 0 Z " fill="#5C8831" transform="translate(406,425)"/>
<path d="M0 0 C1.62332428 2.90003127 2.32053986 5.24570706 2.6328125 8.546875 C2.71660156 9.39121094 2.80039062 10.23554688 2.88671875 11.10546875 C2.96535156 11.97816406 3.04398438 12.85085938 3.125 13.75 C3.21136719 14.63816406 3.29773437 15.52632813 3.38671875 16.44140625 C3.59823066 18.62702936 3.80240227 20.81308238 4 23 C0.38560652 19.38560652 0.04744767 15.3567069 -0.125 10.42578125 C-0.125 6.94827596 -0.08678818 3.4763488 0 0 Z " fill="#557E33" transform="translate(53,313)"/>
<path d="M0 0 C1.98 0 3.96 0 6 0 C3.44441289 2.55558711 1.00344041 3.29083985 -2.375 4.5625 C-3.51710937 4.99691406 -4.65921875 5.43132813 -5.8359375 5.87890625 C-8.2288362 6.72676048 -10.52600348 7.45767071 -13 8 C-12.67 7.01 -12.34 6.02 -12 5 C-10.68 5 -9.36 5 -8 5 C-8 4.34 -8 3.68 -8 3 C-5.29120665 1.64560332 -2.99066732 1.93498549 0 2 C0 1.34 0 0.68 0 0 Z " fill="#52782B" transform="translate(142,58)"/>
<path d="M0 0 C6.3782235 -0.36103152 6.3782235 -0.36103152 8.9375 1.125 C10.53773673 3.94894718 10.44734094 5.80470761 10 9 C8 11.875 8 11.875 6 14 C5.67 12.02 5.34 10.04 5 8 C5.99 8 6.98 8 8 8 C7.34 5.69 6.68 3.38 6 1 C4.02 1 2.04 1 0 1 C0 0.67 0 0.34 0 0 Z " fill="#A56517" transform="translate(309,217)"/>
<path d="M0 0 C-7.5 5 -7.5 5 -15 10 C-15.33 9.01 -15.66 8.02 -16 7 C-15.34 7 -14.68 7 -14 7 C-14 6.34 -14 5.68 -14 5 C-11.09451118 2.95830515 -9.59857954 2 -6 2 C-6 1.34 -6 0.68 -6 0 C-3.50907189 -1.24546405 -2.58919267 -0.7767578 0 0 Z " fill="#5D8E30" transform="translate(120,72)"/>
<path d="M0 0 C-0.33 0.99 -0.66 1.98 -1 3 C-2.32 3 -3.64 3 -5 3 C-5.33 3.99 -5.66 4.98 -6 6 C-8.97 5.67 -11.94 5.34 -15 5 C-12.68994131 2.68994131 -11.16916343 2.27825897 -8.0625 1.375 C-7.18722656 1.11460938 -6.31195313 0.85421875 -5.41015625 0.5859375 C-3 0 -3 0 0 0 Z " fill="#679331" transform="translate(150,36)"/>
<path d="M0 0 C0.66 0.33 1.32 0.66 2 1 C0.6875 2.5 0.6875 2.5 -1 4 C-1.99 4 -2.98 4 -4 4 C-3.01 5.32 -2.02 6.64 -1 8 C-4.93670488 9.31223496 -7.12488144 8.24296256 -11 7 C-7.53252172 4.22601737 -3.93597489 2.04087587 0 0 Z " fill="#558129" transform="translate(379,422)"/>
<path d="M0 0 C5.39359575 4.58455639 7.44523446 10.20412219 8 17 C7.34 17 6.68 17 6 17 C6 16.01 6 15.02 6 14 C5.34 14 4.68 14 4 14 C2.39644899 10.49223216 1.77963136 7.85645121 2 4 C1.34 4 0.68 4 0 4 C0 2.68 0 1.36 0 0 Z " fill="#6E9638" transform="translate(443,104)"/>
<path d="M0 0 C-1.28163247 2.56326494 -2.42785129 2.82416059 -5 4 C-5.680625 4.391875 -6.36125 4.78375 -7.0625 5.1875 C-9 6 -9 6 -12 5 C-12 4.01 -12 3.02 -12 2 C-7.8794254 0.00214565 -4.54805635 -0.17835515 0 0 Z " fill="#6E9935" transform="translate(139,41)"/>
<path d="M0 0 C0.625 1.875 0.625 1.875 1 4 C0.34 4.66 -0.32 5.32 -1 6 C-1.71408334 7.98356483 -2.38617742 9.98315437 -3 12 C-3.99 11.67 -4.98 11.34 -6 11 C-6.33 11.99 -6.66 12.98 -7 14 C-7.66 13.67 -8.32 13.34 -9 13 C-8.51789063 12.31292969 -8.03578125 11.62585938 -7.5390625 10.91796875 C-6.90742188 10.01691406 -6.27578125 9.11585938 -5.625 8.1875 C-4.99851562 7.29417969 -4.37203125 6.40085937 -3.7265625 5.48046875 C-2.46449761 3.66732122 -1.22541192 1.83811789 0 0 Z " fill="#55782B" transform="translate(428,373)"/>
<path d="M0 0 C4.23431576 3.60700972 6.4692099 8.14586161 9 13 C8.34 13 7.68 13 7 13 C7 12.34 7 11.68 7 11 C6.01 11.33 5.02 11.66 4 12 C3.32332002 10.75539217 2.65905281 9.50403104 2 8.25 C1.62875 7.55390625 1.2575 6.8578125 0.875 6.140625 C0 4 0 4 0 0 Z " fill="#557F2C" transform="translate(71,373)"/>
<path d="M0 0 C1.33735521 2.67471043 0.71006471 3.69340172 -0.1875 6.5 C-0.42855469 7.2940625 -0.66960937 8.088125 -0.91796875 8.90625 C-2.22818739 11.44154671 -3.37907206 12.00155126 -6 13 C-6 13.66 -6 14.32 -6 15 C-6.66 15 -7.32 15 -8 15 C-6.62712658 11.30123909 -4.93644547 8.0485524 -2.875 4.6875 C-2.33617187 3.80449219 -1.79734375 2.92148438 -1.2421875 2.01171875 C-0.83226562 1.34785156 -0.42234375 0.68398437 0 0 Z " fill="#9E7514" transform="translate(245,127)"/>
<path d="M0 0 C1.46726798 3.81489674 0.43336419 6.29011622 -1 10 C0.65 10.33 2.3 10.66 4 11 C2.1875 12.0625 2.1875 12.0625 0 13 C-0.99 12.67 -1.98 12.34 -3 12 C-3.2954439 6.97745369 -2.98514628 4.10457614 0 0 Z " fill="#A24C17" transform="translate(174,245)"/>
<path d="M0 0 C1.74965358 -0.05429959 3.49979787 -0.09292823 5.25 -0.125 C6.22453125 -0.14820313 7.1990625 -0.17140625 8.203125 -0.1953125 C11.08661938 0.00604884 12.67013093 0.30069182 15 2 C15.75 4.125 15.75 4.125 16 6 C10.63904723 4.41078475 5.29156027 2.81027062 0 1 C0 0.67 0 0.34 0 0 Z " fill="#5F852C" transform="translate(349,57)"/>
<path d="M0 0 C0.33 0 0.66 0 1 0 C1.3125 3.1875 1.3125 3.1875 1 7 C-1.45094228 9.98087575 -3.79527998 11.86351998 -7 14 C-5.56032356 8.76481294 -3.18303389 4.36973991 0 0 Z " fill="#AD8816" transform="translate(210,185)"/>
<path d="M0 0 C3.46113247 1.73056624 4.71925805 5.46966467 6 9 C5.75 12 5.75 12 5 14 C1.34133706 9.67612562 0 5.65076098 0 0 Z " fill="#54752D" transform="translate(41,354)"/>
<path d="M0 0 C0.33 0 0.66 0 1 0 C0.88623383 2.12563103 0.75864369 4.2505261 0.625 6.375 C0.52058594 8.15003906 0.52058594 8.15003906 0.4140625 9.9609375 C0 13 0 13 -2 15 C-2.33 11.37 -2.66 7.74 -3 4 C-2.34 3.67 -1.68 3.34 -1 3 C-0.67 2.01 -0.34 1.02 0 0 Z " fill="#5D8530" transform="translate(461,340)"/>
<path d="M0 0 C2.9375 0.75 2.9375 0.75 4.9375 2.75 C5.20741906 5.43839385 5.02487357 8.04141936 4.9375 10.75 C4.6075 10.75 4.2775 10.75 3.9375 10.75 C3.9375 8.44 3.9375 6.13 3.9375 3.75 C0.6375 3.75 -2.6625 3.75 -6.0625 3.75 C-6.0625 3.09 -6.0625 2.43 -6.0625 1.75 C-3.0625 -0.25 -3.0625 -0.25 0 0 Z " fill="#967219" transform="translate(256.0625,117.25)"/>
<path d="M0 0 C4.2026393 2.63886654 7.56638098 5.36440339 11 9 C8.69 8.67 6.38 8.34 4 8 C4 7.34 4 6.68 4 6 C2.68 5.34 1.36 4.68 0 4 C0 2.68 0 1.36 0 0 Z " fill="#598031" transform="translate(99,407)"/>
<path d="M0 0 C4.30764815 1.56641751 8.06171464 3.68336156 12 6 C11.01 6.66 10.02 7.32 9 8 C7.49460339 7.05016642 5.99579653 6.08988109 4.5 5.125 C3.6646875 4.59132813 2.829375 4.05765625 1.96875 3.5078125 C1.3190625 3.01023437 0.669375 2.51265625 0 2 C0 1.34 0 0.68 0 0 Z " fill="#537B2D" transform="translate(114,419)"/>
<path d="M0 0 C0.6171875 1.80859375 0.6171875 1.80859375 1 4 C-0.875 7.0625 -0.875 7.0625 -3 10 C-3.33 10.99 -3.66 11.98 -4 13 C-4.99 13 -5.98 13 -7 13 C-5.35821735 8.22390502 -2.73453298 4.20617096 0 0 Z " fill="#8D7911" transform="translate(221,167)"/>
<path d="M0 0 C1.90845703 0.04060547 1.90845703 0.04060547 3.85546875 0.08203125 C5.31919922 0.13423828 5.31919922 0.13423828 6.8125 0.1875 C6.8125 0.5175 6.8125 0.8475 6.8125 1.1875 C4.91757994 1.52598652 3.02151534 1.85806911 1.125 2.1875 C0.06925781 2.373125 -0.98648437 2.55875 -2.07421875 2.75 C-4.83654062 3.13818074 -7.40492043 3.27009976 -10.1875 3.1875 C-7.45798749 -0.67846382 -4.44588996 -0.12236394 0 0 Z " fill="#4C6B26" transform="translate(342.1875,456.8125)"/>
<path d="M0 0 C1.875 0.1875 1.875 0.1875 4 1 C5.375 3.25 5.375 3.25 6 6 C5.125 8.8125 5.125 8.8125 4 11 C3.67 11 3.34 11 3 11 C2.67 9.35 2.34 7.7 2 6 C1.34 6 0.68 6 0 6 C0 4.02 0 2.04 0 0 Z " fill="#5C902B" transform="translate(450,360)"/>
<path d="M0 0 C0.66 0.33 1.32 0.66 2 1 C1.731875 1.66 1.46375 2.32 1.1875 3 C-0.25705047 6.64939067 -1.62871178 10.32245433 -3 14 C-3.66 14 -4.32 14 -5 14 C-4.46515599 8.65155992 -2.53309233 4.64203897 0 0 Z " fill="#F8BE0E" transform="translate(232,153)"/>
<path d="M0 0 C0.66 0.33 1.32 0.66 2 1 C-2.049191 5.83290538 -5.96719209 7.3833652 -12 9 C-8.63378119 5.21300384 -4.58358196 2.1727369 0 0 Z " fill="#4D7223" transform="translate(109,52)"/>
<path d="M0 0 C0.33 0.66 0.66 1.32 1 2 C0.34 2 -0.32 2 -1 2 C-1.0825 2.515625 -1.165 3.03125 -1.25 3.5625 C-2.32140225 7.04455732 -4.13523605 9.87200885 -6 13 C-6.33 13 -6.66 13 -7 13 C-7.20086443 9.28400809 -7.1519437 8.22791555 -5 5 C-4.34 5 -3.68 5 -3 5 C-3 3.68 -3 2.36 -3 1 C-2.01 0.67 -1.02 0.34 0 0 Z " fill="#9C2F18" transform="translate(268,304)"/>
<path d="M0 0 C0 3.3645241 -0.38101977 5.05639958 -2 8 C-5 9.875 -5 9.875 -8 11 C-8.66 10.67 -9.32 10.34 -10 10 C-8.625 8.5 -8.625 8.5 -7 7 C-6.34 7 -5.68 7 -5 7 C-5 6.34 -5 5.68 -5 5 C-4.34 5 -3.68 5 -3 5 C-2.690625 4.360625 -2.38125 3.72125 -2.0625 3.0625 C-1 1 -1 1 0 0 Z " fill="#476829" transform="translate(411,396)"/>
<path d="M0 0 C0.33 1.32 0.66 2.64 1 4 C1.99 4 2.98 4 4 4 C5.66670026 7.52948291 6.13583456 9.28272326 5 13 C3.96679519 11.40377344 2.94877571 9.79770894 1.9375 8.1875 C1.36902344 7.29417969 0.80054688 6.40085937 0.21484375 5.48046875 C-1 3 -1 3 0 0 Z " fill="#55762B" transform="translate(51,376)"/>
<path d="M0 0 C0.75 1.5625 0.75 1.5625 1 4 C-0.13084437 6.50286409 -1.52139516 8.67007722 -3 11 C-3.99 11 -4.98 11 -6 11 C-4.54955729 6.89041233 -2.48889248 3.56741255 0 0 Z " fill="#9F5911" transform="translate(185,227)"/>
<path d="M0 0 C3.42025316 3.42025316 3.95344801 7.71982025 4.125 12.4375 C4.08375 13.283125 4.0425 14.12875 4 15 C1.55289624 13.13022903 1.03068507 12.17497517 0.48828125 9.08203125 C0.43027344 8.00308594 0.37226563 6.92414063 0.3125 5.8125 C0.21388672 4.18248047 0.21388672 4.18248047 0.11328125 2.51953125 C0.07589844 1.68808594 0.03851563 0.85664063 0 0 Z " fill="#618531" transform="translate(459,140)"/>
<path d="M0 0 C0.6875 2.625 0.6875 2.625 1 5 C-0.32 5 -1.64 5 -3 5 C-5.25 2 -5.25 2 -7 -1 C-3.51418144 -2.2020064 -3.32007656 -2.21338437 0 0 Z " fill="#6E9A3A" transform="translate(413,92)"/>
<path d="M0 0 C0.66 0.33 1.32 0.66 2 1 C1.1875 2.9375 1.1875 2.9375 0 5 C-0.99 5.33 -1.98 5.66 -3 6 C-3.33 6.66 -3.66 7.32 -4 8 C-4 7.34 -4 6.68 -4 6 C-4.66 6 -5.32 6 -6 6 C-5 3 -5 3 -2.5625 1.25 C-1.716875 0.8375 -0.87125 0.425 0 0 Z " fill="#6A9833" transform="translate(102,80)"/>
<path d="M0 0 C1.58624235 0.42683239 3.1689098 0.86696158 4.75 1.3125 C6.07257813 1.67794922 6.07257813 1.67794922 7.421875 2.05078125 C10.05772505 3.02125331 11.85407326 4.21005644 14 6 C13.01 6.33 12.02 6.66 11 7 C9.24763912 6.01230568 7.49529422 5.01814719 5.81640625 3.91015625 C3.74258481 2.701345 3.74258481 2.701345 0 3 C0 2.01 0 1.02 0 0 Z " fill="#597C29" transform="translate(363,40)"/>
<path d="M0 0 C-1.33345504 3.59007126 -2.8943231 6.79570907 -5 10 C-5.33 10 -5.66 10 -6 10 C-6.19990835 6.40164967 -5.96808719 4.06146896 -4 1 C-2 0 -2 0 0 0 Z " fill="#56792B" transform="translate(444,387)"/>
<path d="M0 0 C0.33 0.66 0.66 1.32 1 2 C-0.71836669 4.9594093 -1.59688888 5.87992435 -4.9375 6.875 C-8.07142606 7.00291535 -9.41704268 6.68885671 -12 5 C-8.93109813 3.46554906 -6.29905734 4.45015711 -3 5 C-3.33 4.01 -3.66 3.02 -4 2 C-2.68 1.34 -1.36 0.68 0 0 Z " fill="#7C1B15" transform="translate(234,358)"/>
<path d="M0 0 C0.99 0.33 1.98 0.66 3 1 C3 1.99 3 2.98 3 4 C3.66 4.33 4.32 4.66 5 5 C4.67 5.99 4.34 6.98 4 8 C4.66 8 5.32 8 6 8 C6 9.98 6 11.96 6 14 C4.31821339 11.47732009 3.09893258 9.18908177 1.875 6.4375 C1.52179688 5.65246094 1.16859375 4.86742187 0.8046875 4.05859375 C0 2 0 2 0 0 Z " fill="#5A7C2D" transform="translate(433,130)"/>
<path d="M0 0 C0.66 0 1.32 0 2 0 C2.75 2.75 2.75 2.75 3 6 C1.0625 8.375 1.0625 8.375 -1 10 C-1.66 9.67 -2.32 9.34 -3 9 C-2.505 7.88625 -2.01 6.7725 -1.5 5.625 C0.1274506 2.34584251 0.1274506 2.34584251 0 0 Z " fill="#C52F2A" transform="translate(234,350)"/>
<path d="M0 0 C1.9375 0.3125 1.9375 0.3125 4 1 C4.33 1.99 4.66 2.98 5 4 C5.99 4 6.98 4 8 4 C8.33 5.32 8.66 6.64 9 8 C7.49460339 7.05016642 5.99579653 6.08988109 4.5 5.125 C3.6646875 4.59132813 2.829375 4.05765625 1.96875 3.5078125 C1.3190625 3.01023437 0.669375 2.51265625 0 2 C0 1.34 0 0.68 0 0 Z " fill="#5E7D33" transform="translate(88,424)"/>
<path d="M0 0 C0.99 0.33 1.98 0.66 3 1 C2.02471263 2.33617352 1.04466681 3.6688751 0.0625 5 C-0.48277344 5.7425 -1.02804687 6.485 -1.58984375 7.25 C-2.28787109 8.11625 -2.28787109 8.11625 -3 9 C-3.33 9 -3.66 9 -4 9 C-4 7.35 -4 5.7 -4 4 C-2.68 3.67 -1.36 3.34 0 3 C0 2.01 0 1.02 0 0 Z " fill="#54742B" transform="translate(435,397)"/>
<path d="M0 0 C2.475 0.99 2.475 0.99 5 2 C4.67 3.65 4.34 5.3 4 7 C3.01 7 2.02 7 1 7 C0.67 4.69 0.34 2.38 0 0 Z " fill="#DD3528" transform="translate(240,336)"/>
<path d="M0 0 C0.33 0 0.66 0 1 0 C1.05386629 2.12472576 1.09273071 4.24983652 1.125 6.375 C1.14820313 7.55835938 1.17140625 8.74171875 1.1953125 9.9609375 C1 13 1 13 -1 15 C-2.20220203 11.46905698 -1.79532349 8.87101018 -1.0625 5.25 C-0.86785156 4.26515625 -0.67320312 3.2803125 -0.47265625 2.265625 C-0.31667969 1.51796875 -0.16070312 0.7703125 0 0 Z " fill="#496927" transform="translate(444,324)"/>
<path d="M0 0 C0.99 0 1.98 0 3 0 C3 2.31 3 4.62 3 7 C2.01 7.495 2.01 7.495 1 8 C1 7.34 1 6.68 1 6 C0.34 6 -0.32 6 -1 6 C-0.67 4.02 -0.34 2.04 0 0 Z " fill="#E85422" transform="translate(273,286)"/>
<path d="M0 0 C1 2 1 2 0.375 5.5 C-1 9 -1 9 -3.625 10.4375 C-4.40875 10.623125 -5.1925 10.80875 -6 11 C-4.54955729 6.89041233 -2.48889248 3.56741255 0 0 Z " fill="#986C16" transform="translate(196,209)"/>
<path d="M0 0 C0.33 0.99 0.66 1.98 1 3 C-0.65 4.32 -2.3 5.64 -4 7 C-4.99 6.34 -5.98 5.68 -7 5 C-4.69 3.35 -2.38 1.7 0 0 Z " fill="#547A2C" transform="translate(393,413)"/>
<path d="M0 0 C0 3.92896395 -1.00299863 7.19893228 -2 11 C-2.99 10.67 -3.98 10.34 -5 10 C-4.34 9.01 -3.68 8.02 -3 7 C-3.66 6.67 -4.32 6.34 -5 6 C-3.35 4.02 -1.7 2.04 0 0 Z " fill="#547B27" transform="translate(417,389)"/>
<path d="M0 0 C0.99 0 1.98 0 3 0 C1.8141763 3.37503669 0.72426311 5.64722731 -2 8 C-2 6.02 -2 4.04 -2 2 C-1.34 2 -0.68 2 0 2 C0 1.34 0 0.68 0 0 Z " fill="#A24719" transform="translate(293,261)"/>
<path d="M0 0 C0.99 0.33 1.98 0.66 3 1 C1.68 3.31 0.36 5.62 -1 8 C-1.33 8 -1.66 8 -2 8 C-2.125 5.125 -2.125 5.125 -2 2 C-1.34 1.34 -0.68 0.68 0 0 Z " fill="#BE5B1D" transform="translate(301,248)"/>
<path d="M0 0 C0.66 0.33 1.32 0.66 2 1 C1.67 2.65 1.34 4.3 1 6 C0.34 6 -0.32 6 -1 6 C-1.66 7.32 -2.32 8.64 -3 10 C-3.33 9.34 -3.66 8.68 -4 8 C-3.22265625 6.0546875 -3.22265625 6.0546875 -2.0625 3.875 C-1.49208984 2.78832031 -1.49208984 2.78832031 -0.91015625 1.6796875 C-0.60980469 1.12539062 -0.30945312 0.57109375 0 0 Z " fill="#4F7128" transform="translate(49,117)"/>
<path d="M0 0 C0.99 0.33 1.98 0.66 3 1 C0.42215154 3.64752004 -1.91648098 5.94432065 -5 8 C-3.8141763 4.62496331 -2.72426311 2.35277269 0 0 Z " fill="#638B30" transform="translate(55,108)"/>
<path d="M0 0 C0.78375 0.185625 1.5675 0.37125 2.375 0.5625 C4.97089775 1.25962266 4.97089775 1.25962266 7 0 C7 0.66 7 1.32 7 2 C7.66 2 8.32 2 9 2 C9 2.66 9 3.32 9 4 C6.03 3.67 3.06 3.34 0 3 C0 2.01 0 1.02 0 0 Z " fill="#7CB43B" transform="translate(373,64)"/>
<path d="M0 0 C-0.66 1.32 -1.32 2.64 -2 4 C-3.32 3.67 -4.64 3.34 -6 3 C-6 2.01 -6 1.02 -6 0 C-3.50907189 -1.24546405 -2.58919267 -0.7767578 0 0 Z " fill="#58862B" transform="translate(356,435)"/>
<path d="M0 0 C0.99 0.33 1.98 0.66 3 1 C1.60667426 4.36720387 0.0210714 5.9859524 -3 8 C-3 6.68 -3 5.36 -3 4 C-2.34 4 -1.68 4 -1 4 C-0.67 2.68 -0.34 1.36 0 0 Z " fill="#53752D" transform="translate(424,409)"/>
<path d="M0 0 C2 3 2 3 1.625 5.1875 C1.41875 5.785625 1.2125 6.38375 1 7 C0.01 7 -0.98 7 -2 7 C-2.125 4.625 -2.125 4.625 -2 2 C-1.34 1.34 -0.68 0.68 0 0 Z " fill="#E34725" transform="translate(267,298)"/>
<path d="M0 0 C0.33 0 0.66 0 1 0 C1.33 2.64 1.66 5.28 2 8 C0.68 8.33 -0.64 8.66 -2 9 C-1.125 2.25 -1.125 2.25 0 0 Z " fill="#EE9D17" transform="translate(197,209)"/>
<path d="M0 0 C0.33 0.66 0.66 1.32 1 2 C1.66 2 2.32 2 3 2 C3 3.65 3 5.3 3 7 C1.02 6.34 -0.96 5.68 -3 5 C-2.67 4.34 -2.34 3.68 -2 3 C-1.34 3 -0.68 3 0 3 C0 2.01 0 1.02 0 0 Z " fill="#79B139" transform="translate(442,106)"/>
<path d="M0 0 C0.66 0.33 1.32 0.66 2 1 C-0.51830747 4.12270126 -1.7261549 4.94523098 -5.75 5.75 C-7.35875 5.87375 -7.35875 5.87375 -9 6 C-7.73295613 3.46591226 -6.56876843 3.06790028 -4.0625 1.8125 C-3.35222656 1.44769531 -2.64195313 1.08289062 -1.91015625 0.70703125 C-1.27980469 0.47371094 -0.64945313 0.24039063 0 0 Z " fill="#486823" transform="translate(124,44)"/>
<path d="M0 0 C2.97 0.495 2.97 0.495 6 1 C3.06171403 3.50298434 0.82097239 4.46930939 -3 5 C-3 4.01 -3 3.02 -3 2 C-2.01 2 -1.02 2 0 2 C0 1.34 0 0.68 0 0 Z " fill="#5B8E28" transform="translate(148,435)"/>
<path d="M0 0 C1.32 1.65 2.64 3.3 4 5 C2.02 5 0.04 5 -2 5 C-1.34 3.35 -0.68 1.7 0 0 Z M-4 4 C-3.01 4.495 -3.01 4.495 -2 5 C-2.33 5.66 -2.66 6.32 -3 7 C-3.33 6.01 -3.66 5.02 -4 4 Z " fill="#5E8B31" transform="translate(85,392)"/>
<path d="M0 0 C0.66 0.33 1.32 0.66 2 1 C1.67 1.99 1.34 2.98 1 4 C0.34 4 -0.32 4 -1 4 C-1 4.66 -1 5.32 -1 6 C-1.66 6 -2.32 6 -3 6 C-3.33 6.99 -3.66 7.98 -4 9 C-4.66 8.67 -5.32 8.34 -6 8 C-4.26440562 4.942048 -2.61527381 2.36620011 0 0 Z " fill="#739E41" transform="translate(422,384)"/>
<path d="M0 0 C0.99 0.33 1.98 0.66 3 1 C1.81323934 5.10801767 1.10551666 6.89448334 -2 10 C-1.34 6.7 -0.68 3.4 0 0 Z " fill="#52762C" transform="translate(448,374)"/>
<path d="M0 0 C0.33 0.66 0.66 1.32 1 2 C-0.30406884 4.01920337 -1.63823419 6.01924973 -3 8 C-3.33 8 -3.66 8 -4 8 C-4 6.02 -4 4.04 -4 2 C-2.68 1.34 -1.36 0.68 0 0 Z " fill="#9B231B" transform="translate(249,334)"/>
<path d="M0 0 C0.33 1.32 0.66 2.64 1 4 C0.01 4.33 -0.98 4.66 -2 5 C-2.33 6.65 -2.66 8.3 -3 10 C-3.66 10 -4.32 10 -5 10 C-3.84414715 6.08788267 -2.64465038 3.1254959 0 0 Z " fill="#9B7414" transform="translate(202,199)"/>
<path d="M0 0 C1.04449911 3.13349732 0.93423645 3.98968256 0 7 C-0.66 7 -1.32 7 -2 7 C-2 7.66 -2 8.32 -2 9 C-2.99 9.33 -3.98 9.66 -5 10 C-3.66511872 6.40608886 -2.03977277 3.24509304 0 0 Z " fill="#496724" transform="translate(59,99)"/>
<path d="M0 0 C0.66 0.33 1.32 0.66 2 1 C1.6875 2.9375 1.6875 2.9375 1 5 C0.01 5.33 -0.98 5.66 -2 6 C-2.33 4.68 -2.66 3.36 -3 2 C-2.01 1.34 -1.02 0.68 0 0 Z " fill="#618832" transform="translate(92,89)"/>
<path d="M0 0 C0.66 0.33 1.32 0.66 2 1 C1.34 2.32 0.68 3.64 0 5 C-0.99 5 -1.98 5 -3 5 C-3.33 6.32 -3.66 7.64 -4 9 C-4.66 8.67 -5.32 8.34 -6 8 C-6 7.34 -6 6.68 -6 6 C-5.34 6 -4.68 6 -4 6 C-4 5.34 -4 4.68 -4 4 C-3.34 4 -2.68 4 -2 4 C-2 3.34 -2 2.68 -2 2 C-1.34 2 -0.68 2 0 2 C0 1.34 0 0.68 0 0 Z " fill="#4E6C26" transform="translate(80,74)"/>
<path d="M0 0 C2.64 0.33 5.28 0.66 8 1 C6 3 6 3 4.0546875 3.1953125 C2.03645833 3.13020833 0.01822917 3.06510417 -2 3 C-1.34 2.01 -0.68 1.02 0 0 Z " fill="#6E9A3E" transform="translate(344,454)"/>
<path d="M0 0 C0.33 0 0.66 0 1 0 C1.25 5.625 1.25 5.625 -1 9 C-1.66 9 -2.32 9 -3 9 C-2.30058404 5.85262818 -1.23921302 2.97411124 0 0 Z " fill="#4D6E2C" transform="translate(432,364)"/>
<path d="M0 0 C0.66 0.33 1.32 0.66 2 1 C1.67 2.98 1.34 4.96 1 7 C0.34 7 -0.32 7 -1 7 C-1 6.34 -1 5.68 -1 5 C-1.66 5 -2.32 5 -3 5 C-2 2 -2 2 0 0 Z " fill="#6B9D2F" transform="translate(445,336)"/>
<path d="M0 0 C1.76065836 2.64098754 2.52722899 3.9742655 3 7 C2.67 7.99 2.34 8.98 2 10 C1.34 10 0.68 10 0 10 C0 6.7 0 3.4 0 0 Z " fill="#5F842E" transform="translate(34,317)"/>
<path d="M0 0 C0.99 0 1.98 0 3 0 C1.8141763 3.37503669 0.72426311 5.64722731 -2 8 C-2 6.35 -2 4.7 -2 3 C-1.34 3 -0.68 3 0 3 C0 2.01 0 1.02 0 0 Z " fill="#B9661C" transform="translate(311,232)"/>
<path d="M0 0 C2.92879371 0.62759865 5.36095629 1.58622659 8 3 C8 3.99 8 4.98 8 6 C6 5 4 4 2 3 C2 2.34 2 1.68 2 1 C1.34 0.67 0.68 0.34 0 0 Z " fill="#567C2F" transform="translate(388,76)"/>
<path d="M0 0 C0.33 0.66 0.66 1.32 1 2 C2.32 1.34 3.64 0.68 5 0 C5.33 0.99 5.66 1.98 6 3 C4.68 3.99 3.36 4.98 2 6 C0 3 0 3 0 0 Z " fill="#78B437" transform="translate(441,144)"/>
<path d="M0 0 C0.99 0.33 1.98 0.66 3 1 C2.34 2.98 1.68 4.96 1 7 C0.01 7 -0.98 7 -2 7 C-1.34 4.69 -0.68 2.38 0 0 Z " fill="#5F9530" transform="translate(66,125)"/>
<path d="M0 0 C1.9375 0.625 1.9375 0.625 4 2 C4.75 5.125 4.75 5.125 5 8 C4.34 7.67 3.68 7.34 3 7 C3 6.01 3 5.02 3 4 C2.34 4 1.68 4 1 4 C0.67 2.68 0.34 1.36 0 0 Z " fill="#587A32" transform="translate(422,110)"/>
<path d="M0 0 C0.66 0 1.32 0 2 0 C2.33 0.99 2.66 1.98 3 3 C-0.465 4.485 -0.465 4.485 -4 6 C-4 5.34 -4 4.68 -4 4 C-4.66 3.67 -5.32 3.34 -6 3 C-2.86650268 1.95550089 -2.01031744 2.06576355 1 3 C0.67 2.01 0.34 1.02 0 0 Z " fill="#65922E" transform="translate(126,64)"/>
<path d="M0 0 C0.99 0 1.98 0 3 0 C2 3 2 3 0.125 4.25 C-2 5 -2 5 -5 4 C-4.67 3.34 -4.34 2.68 -4 2 C-2.68 2 -1.36 2 0 2 C0 1.34 0 0.68 0 0 Z " fill="#5C8B32" transform="translate(134,61)"/>
<path d="M0 0 C-0.33 0.99 -0.66 1.98 -1 3 C-3.64 3 -6.28 3 -9 3 C-6.15236477 0.15236477 -3.96383452 0 0 0 Z " fill="#57792D" transform="translate(150,36)"/>
<path d="M0 0 C1.23556641 0.01740234 1.23556641 0.01740234 2.49609375 0.03515625 C3.32238281 0.04417969 4.14867187 0.05320312 5 0.0625 C5.63808594 0.07410156 6.27617187 0.08570313 6.93359375 0.09765625 C3.93359375 2.09765625 3.93359375 2.09765625 0.93359375 3.09765625 C-1.25390625 2.16015625 -1.25390625 2.16015625 -3.06640625 1.09765625 C-2.06640625 0.09765625 -2.06640625 0.09765625 0 0 Z " fill="#4B6D25" transform="translate(326.06640625,439.90234375)"/>
<path d="M0 0 C1.65 1.32 3.3 2.64 5 4 C4.67 4.66 4.34 5.32 4 6 C1.525 5.01 1.525 5.01 -1 4 C-0.67 2.68 -0.34 1.36 0 0 Z " fill="#517C2E" transform="translate(89,397)"/>
<path d="M0 0 C2 1 4 2 6 3 C6 4.65 6 6.3 6 8 C3.33264727 5.51047079 1.44253657 3.36591866 0 0 Z " fill="#4F6F2B" transform="translate(57,390)"/>
<path d="M0 0 C0.6875 1.75 0.6875 1.75 1 4 C-0.3125 6.25 -0.3125 6.25 -2 8 C-2.66 8 -3.32 8 -4 8 C-2.87548273 5.0280615 -1.77706209 2.66559313 0 0 Z " fill="#476D23" transform="translate(428,373)"/>
<path d="M0 0 C-0.60183749 2.02045442 -1.27306096 4.02111039 -2 6 C-2.99 6.495 -2.99 6.495 -4 7 C-4 5.02 -4 3.04 -4 1 C-2 0 -2 0 0 0 Z " fill="#5F862E" transform="translate(73,118)"/>
<path d="M0 0 C3.0916909 2.52956528 3.90931332 5.22454612 5 9 C4.01 9 3.02 9 2 9 C2 7.35 2 5.7 2 4 C1.34 4 0.68 4 0 4 C0 2.68 0 1.36 0 0 Z " fill="#537A2B" transform="translate(443,104)"/>
<path d="M0 0 C0 0.66 0 1.32 0 2 C-0.66 2 -1.32 2 -2 2 C-2.66 3.32 -3.32 4.64 -4 6 C-4.33 6 -4.66 6 -5 6 C-5 4.35 -5 2.7 -5 1 C-3 0 -3 0 0 0 Z " fill="#658D33" transform="translate(90,95)"/>
<path d="M0 0 C1.32 0.66 2.64 1.32 4 2 C2.6875 3.5 2.6875 3.5 1 5 C0.01 5 -0.98 5 -2 5 C-1.34 3.35 -0.68 1.7 0 0 Z " fill="#7BAC3D" transform="translate(75,81)"/>
<path d="M0 0 C0 0.99 0 1.98 0 3 C-2.5 4.6875 -2.5 4.6875 -5 6 C-5.33 5.01 -5.66 4.02 -6 3 C-5.34 3 -4.68 3 -4 3 C-4 2.34 -4 1.68 -4 1 C-2 0 -2 0 0 0 Z " fill="#659438" transform="translate(110,76)"/>
<path d="M0 0 C2.31 1.65 4.62 3.3 7 5 C6.67 5.66 6.34 6.32 6 7 C3.00675737 5.9024777 2.15389099 5.32317108 0.75 2.375 C0.5025 1.59125 0.255 0.8075 0 0 Z " fill="#4C7129" transform="translate(411,67)"/>
<path d="M0 0 C1.98 0 3.96 0 6 0 C4.515 1.98 4.515 1.98 3 4 C1.68 3.67 0.36 3.34 -1 3 C-0.67 2.01 -0.34 1.02 0 0 Z " fill="#7EB440" transform="translate(156,35)"/>
</svg>
